<?xml version="1.0" encoding="UTF-8"?><svg xmlns="http://www.w3.org/2000/svg" xmlns:xlink="http://www.w3.org/1999/xlink" viewBox="0 0 150 210"><defs><style>.cls-1{fill:#0f1c40;}.cls-1,.cls-2,.cls-3,.cls-4,.cls-5{stroke-width:0px;}.cls-6{stroke:#235b75;}.cls-6,.cls-7,.cls-8,.cls-9,.cls-10,.cls-11,.cls-12,.cls-13,.cls-14,.cls-15,.cls-16,.cls-17,.cls-18,.cls-19,.cls-20,.cls-21,.cls-22,.cls-23,.cls-24,.cls-25,.cls-26,.cls-27,.cls-28,.cls-29,.cls-30,.cls-31,.cls-32,.cls-33,.cls-34,.cls-35,.cls-36,.cls-37,.cls-38,.cls-39,.cls-40,.cls-41,.cls-42,.cls-43,.cls-44,.cls-45,.cls-46,.cls-47,.cls-48,.cls-49,.cls-50,.cls-51,.cls-52,.cls-53,.cls-54,.cls-55,.cls-56,.cls-57,.cls-58,.cls-59,.cls-60,.cls-61,.cls-62,.cls-63,.cls-64,.cls-65,.cls-66,.cls-67,.cls-68,.cls-69,.cls-70,.cls-71,.cls-72,.cls-73,.cls-74,.cls-75,.cls-76,.cls-77,.cls-78,.cls-79,.cls-80,.cls-81,.cls-82,.cls-83{fill:none;stroke-miterlimit:10;stroke-width:.15px;}.cls-7{stroke:#27677f;}.cls-8{stroke:#2f8194;}.cls-9{stroke:#3dadba;}.cls-10{stroke:#3491a2;}.cls-11{stroke:#3aa4b2;}.cls-12{stroke:#46c9d1;}.cls-13{stroke:#47ced5;}.cls-14{stroke:#101e42;}.cls-15{stroke:#2f8396;}.cls-16{stroke:#379aaa;}.cls-17{stroke:#389fae;}.cls-18{stroke:#2c778c;}.cls-19{stroke:#2d7c90;}.cls-20{stroke:#1e4d69;}.cls-21{stroke:#20526d;}.cls-2{fill:url(#_ÂÁ_Ï_ÌÌ_È_ËÂÌÚ_131);}.cls-2,.cls-3{mix-blend-mode:color-dodge;}.cls-22{stroke:#276981;}.cls-23{stroke:#163354;}.cls-3{fill:url(#_ÂÁ_Ï_ÌÌ_È_ËÂÌÚ_131-2);}.cls-24{stroke:#21546f;}.cls-25{stroke:#26657d;}.cls-26{stroke:#3db0bc;}.cls-27{stroke:#2c7a8e;}.cls-28{stroke:#1c4461;}.cls-29{stroke:#40b9c3;}.cls-30{stroke:#1b415f;}.cls-4{fill:url(#_ÂÁ_Ï_ÌÌ_È_ËÂÌÚ_23);}.cls-4,.cls-5{mix-blend-mode:screen;}.cls-5{fill:url(#_ÂÁ_Ï_ÌÌ_È_ËÂÌÚ_67);}.cls-31{stroke:#245e77;}.cls-32{stroke:#102144;}.cls-33{stroke:#215771;}.cls-34{stroke:#0f1c40;}.cls-35{stroke:#3fb4bf;}.cls-36{stroke:#2a7389;}.cls-37{stroke:#1c4663;}.cls-38{stroke:#338fa0;}.cls-39{stroke:#1e4b67;}.cls-40{stroke:#142c4e;}.cls-41{stroke:#193d5b;}.cls-42{stroke:#328a9c;}.cls-43{stroke:#112346;}.cls-44{stroke:#44c5cd;}.cls-45{stroke:#13284a;}.cls-46{stroke:#286c83;}.cls-47{stroke:#132a4c;}.cls-48{stroke:#3698a8;}.cls-49{stroke:#41bbc5;}.cls-50{stroke:#43c0c9;}.cls-51{stroke:#3eb2bd;}.cls-52{stroke:#3593a4;}.cls-53{stroke:#3aa6b4;}.cls-54{stroke:#308598;}.cls-55{stroke:#1f506b;}.cls-56{stroke:#389dac;}.cls-57{stroke:#122548;}.cls-58{stroke:#39a1b0;}.cls-59{stroke:#2b758b;}.cls-60{stroke:#296e85;}.cls-61{stroke:#31889a;}.cls-62{stroke:#152f50;}.cls-63{stroke:#3ba9b6;}.cls-64{stroke:#193a59;}.cls-65{stroke:#328c9e;}.cls-66{stroke:#46ccd3;}.cls-67{stroke:#40b7c1;}.cls-84{isolation:isolate;}.cls-68{stroke:#25627b;}.cls-69{stroke:#42bec7;}.cls-70{stroke:#163152;}.cls-71{stroke:#2e7e92;}.cls-72{stroke:#225973;}.cls-73{stroke:#1a3f5d;}.cls-74{stroke:#183858;}.cls-75{stroke:#2b758a;}.cls-76{stroke:#43c2cb;}.cls-77{stroke:#45c7cf;}.cls-78{stroke:#246079;}.cls-79{stroke:#173656;}.cls-80{stroke:#3596a6;}.cls-81{stroke:#1d4965;}.cls-82{stroke:#2a7087;}.cls-83{stroke:#3cabb8;}</style><radialGradient id="_ÂÁ_Ï_ÌÌ_È_ËÂÌÚ_131" cx="-205.58" cy="2762.33" fx="-205.58" fy="2762.33" r="31.78" gradientTransform="translate(-551.21 -605.58) rotate(-54.84) scale(1 .31)" gradientUnits="userSpaceOnUse"><stop offset="0" stop-color="#47ced5"/><stop offset=".04" stop-color="#3fb8be"/><stop offset=".12" stop-color="#308d92"/><stop offset=".21" stop-color="#23676a"/><stop offset=".3" stop-color="#184749"/><stop offset=".4" stop-color="#0f2d2e"/><stop offset=".51" stop-color="#081919"/><stop offset=".63" stop-color="#030a0b"/><stop offset=".77" stop-color="#000202"/><stop offset="1" stop-color="#000"/></radialGradient><radialGradient id="_ÂÁ_Ï_ÌÌ_È_ËÂÌÚ_131-2" cx="-42.23" cy="2336.67" fx="-42.23" fy="2336.67" r="31.78" gradientTransform="translate(-179.88 -533.41) rotate(-24.85) scale(1 .31)" xlink:href="#_ÂÁ_Ï_ÌÌ_È_ËÂÌÚ_131"/><radialGradient id="_ÂÁ_Ï_ÌÌ_È_ËÂÌÚ_23" cx="-920.09" cy="1320.82" fx="-920.09" fy="1320.82" r="42.13" gradientTransform="translate(-679.15 -787.9) rotate(-90) scale(1 .54)" gradientUnits="userSpaceOnUse"><stop offset="0" stop-color="#00547a"/><stop offset=".13" stop-color="#003c57"/><stop offset=".29" stop-color="#002638"/><stop offset=".45" stop-color="#00151f"/><stop offset=".61" stop-color="#00090d"/><stop offset=".79" stop-color="#000203"/><stop offset="1" stop-color="#000"/></radialGradient><radialGradient id="_ÂÁ_Ï_ÌÌ_È_ËÂÌÚ_67" cx="-570.33" cy="1374.36" fx="-570.33" fy="1374.36" r="38.08" gradientTransform="translate(-597.39 -475.5) rotate(-90) scale(1 .53)" gradientUnits="userSpaceOnUse"><stop offset="0" stop-color="#24676b"/><stop offset=".02" stop-color="#226367"/><stop offset=".22" stop-color="#164042"/><stop offset=".42" stop-color="#0c2425"/><stop offset=".61" stop-color="#051010"/><stop offset=".81" stop-color="#010404"/><stop offset=".99" stop-color="#000"/></radialGradient></defs><g class="cls-84"><g id="Layer_2"><g id="_ÎÓÈ_1"><g id="Spiral"><g id="g1"><rect id="_1" class="cls-1" width="150" height="210"/></g><g id="All"><path class="cls-34" d="M91.05,50.93c22.69-1.08,56.96,17.5,55.3,55.3-.7,21.76-26.57,59.24-55.3,55.3-31.29-4.64-51.38-23.12-55.3-55.3-9.22-41.55,18.38-62.04,55.3-55.3Z"/><path class="cls-14" d="M91.05,50.58c21.15-5.89,61.73,27.92,55.3,55.3,4.38,20.86-29.52,50.38-55.3,55.3-30.48,7.03-48.12-27.93-55.3-55.3,8.62-33.36,27.37-52.95,55.3-55.3Z"/><path class="cls-32" d="M91.04,50.23c27.85-10.39,56.53,34.84,55.3,55.3,5.02,35.44-24,54.13-55.3,55.3-40.13-2.28-45.46-16.06-55.3-55.3-8.99-40.37,20.94-63.98,55.3-55.3Z"/><path class="cls-43" d="M91.02,49.89c28.84-9.06,55.01,14.3,55.3,55.3-5.2,30.18-18.84,44.33-55.3,55.3-29.94,3.78-60.67-15.37-55.3-55.3-7.3-32.86,24.3-58.27,55.3-55.3Z"/><path class="cls-57" d="M90.99,49.55c39.84-2.03,46.22,33.82,55.3,55.3-3.72,39.46-31.52,56.53-55.3,55.3-40.84-3.57-48.52-32.78-55.3-55.3-3.44-37.23,33.23-65.83,55.3-55.3Z"/><path class="cls-45" d="M90.96,49.21c20.57-8.94,63.76,17.33,55.3,55.3-2.56,20.77-19.1,63.63-55.3,55.3-27.38.7-53.31-23.82-55.3-55.3,4.72-39.23,16.87-64.58,55.3-55.3Z"/><path class="cls-47" d="M90.92,48.87c32.28,5.75,55.83,18.96,55.3,55.3-1.37,40.03-30.27,50.47-55.3,55.3-31.97-6.91-51.32-17.1-55.3-55.3-2.81-19.89,31.07-60.59,55.3-55.3Z"/><path class="cls-40" d="M90.87,48.54c41.5,8.34,64.92,32.2,55.3,55.3-6.73,36.5-25.63,44.29-55.3,55.3-27.23-1.63-58.6-17.48-55.3-55.3.92-35.74,22.04-57.61,55.3-55.3Z"/><path class="cls-62" d="M90.82,48.21c33.37-7.38,53.66,20.35,55.3,55.3-7.33,30.2-29.76,56.62-55.3,55.3-23.85,9.37-61.87-19.97-55.3-55.3,4.11-33.49,28.27-48.83,55.3-55.3Z"/><path class="cls-70" d="M90.76,47.88c36.55,10.35,62.38,35.4,55.3,55.3,6.77,19.6-17.86,47.4-55.3,55.3-23.58-4.7-60.02-23.48-55.3-55.3,3.21-40.89,28.4-52.8,55.3-55.3Z"/><path class="cls-23" d="M90.69,47.55c37.48,2.53,57.08,27.28,55.3,55.3,2.56,34.14-23.58,65.92-55.3,55.3-38.56-1.51-61.27-22.56-55.3-55.3,5.69-25.68,32.46-60.88,55.3-55.3Z"/><path class="cls-79" d="M90.62,47.22c27.38,6.83,64.87,29.04,55.3,55.3-4.6,31.93-25.68,60.1-55.3,55.3-22.24,10.03-58.35-21.22-55.3-55.3,10.69-20,18.32-51.09,55.3-55.3Z"/><path class="cls-74" d="M90.54,46.9c27.18,11,66.18,32.51,55.3,55.3,7.52,40.77-33.69,61.71-55.3,55.3-21.42.1-47.85-24.66-55.3-55.3-10.37-23.63,22.9-46.17,55.3-55.3Z"/><path class="cls-64" d="M90.45,46.58c23.87,5.44,63.85,18.66,55.3,55.3,4.41,33.71-18.84,61.95-55.3,55.3-40.8-7.32-49.53-30.92-55.3-55.3-.36-39.95,34.33-61.02,55.3-55.3Z"/><path class="cls-41" d="M90.36,46.26c39.68-8.53,63.79,32.26,55.3,55.3,8.2,25.86-21.88,63.97-55.3,55.3-40.15,7.5-59.37-22.64-55.3-55.3,9.29-23.38,16.87-50.22,55.3-55.3Z"/><path class="cls-73" d="M90.26,45.95c24.19-10.35,55.61,35.38,55.3,55.3-10.15,38.39-17.56,46.98-55.3,55.3-20.1,1.9-46.77-25.08-55.3-55.3-10.1-25.95,24.24-54.5,55.3-55.3Z"/><path class="cls-30" d="M90.15,45.64c34.08,3.81,59.65,26.21,55.3,55.3,4.58,40.53-22.53,62.95-55.3,55.3-41.46-10.18-62.4-31.5-55.3-55.3,6.74-34.13,25.45-59.79,55.3-55.3Z"/><path class="cls-28" d="M90.04,45.33c36.83,7.22,63.39,25.3,55.3,55.3-4.41,24.18-26.15,45.89-55.3,55.3-23.35,5.78-58.45-16.98-55.3-55.3.61-26.93,18.13-55.26,55.3-55.3Z"/><path class="cls-37" d="M89.92,45.02c24.07-4.82,46.27,17.46,55.3,55.3-4.1,34.31-32.02,63.41-55.3,55.3-28.06,2.6-62.87-18.59-55.3-55.3-10.29-33.95,31.35-47.13,55.3-55.3Z"/><path class="cls-81" d="M89.8,44.72c36.46-6.77,48.92,26.45,55.3,55.3-1.58,22.49-33.03,59.64-55.3,55.3-37.02-7.56-65.98-16.48-55.3-55.3,6-38.61,17.73-50.41,55.3-55.3Z"/><path class="cls-39" d="M89.67,44.42c33.73-.83,65.21,34.74,55.3,55.3,2.89,32.05-30.8,62.53-55.3,55.3-36.55,10.82-61.92-14.11-55.3-55.3,9.5-36.18,33.2-58.45,55.3-55.3Z"/><path class="cls-20" d="M89.53,44.12c30.2-8.71,45.13,13.97,55.3,55.3-3.41,29.49-32.84,59.48-55.3,55.3-37.21-7.81-45.94-29.93-55.3-55.3,1.69-25.57,18.55-56.79,55.3-55.3Z"/><path class="cls-55" d="M89.39,43.83c31.14,3.06,52.28,21.71,55.3,55.3,1.3,23.35-27.69,49.86-55.3,55.3-26.79-.51-55.82-22.72-55.3-55.3,6.1-23.05,23.4-59.09,55.3-55.3Z"/><path class="cls-21" d="M89.24,43.54c35.56-1.31,45.54,32.8,55.3,55.3,9.75,28.23-26.43,53.3-55.3,55.3-33.9-10.97-58.55-16.02-55.3-55.3,4.76-31.91,32-54.6,55.3-55.3Z"/><path class="cls-24" d="M89.09,43.25c38.97-7.96,58.71,14,55.3,55.3,10.46,28.92-15.6,51.61-55.3,55.3-36.74-4.19-58.13-23.49-55.3-55.3,7.3-34.15,32.37-66.23,55.3-55.3Z"/><path class="cls-33" d="M88.93,42.97c36.16,10.65,48.51,20.76,55.3,55.3-9.48,32.85-20.88,63.47-55.3,55.3-26.69,9.09-48.59-18.47-55.3-55.3,9.48-26.39,19.04-53.75,55.3-55.3Z"/><path class="cls-72" d="M88.76,42.69c23.93-6.53,52.12,28.55,55.3,55.3,4.75,34.22-15.78,64.23-55.3,55.3-27.65,2.78-55.45-14.17-55.3-55.3-4.05-33.74,17.95-60.4,55.3-55.3Z"/><path class="cls-6" d="M88.59,42.41c26.01-1.8,57.26,29.68,55.3,55.3,1.42,22.24-29.5,60.56-55.3,55.3-26.94,10.11-44.49-33.27-55.3-55.3,9.4-35.12,22.86-49.66,55.3-55.3Z"/><path class="cls-31" d="M88.42,42.14c29.44,10.53,49.18,19.42,55.3,55.3,2.09,33.7-33.57,54.5-55.3,55.3-38.87-.79-51.67-33.26-55.3-55.3-1.55-21.33,20.24-51.87,55.3-55.3Z"/><path class="cls-78" d="M88.24,41.87c31.6-3.34,57.69,26.43,55.3,55.3-6.32,28.51-27.56,51.76-55.3,55.3-35.64-8.03-47.7-30.87-55.3-55.3-2.6-31,14.11-45.32,55.3-55.3Z"/><path class="cls-68" d="M88.05,41.61c20.82.07,49.3,32.58,55.3,55.3-2.37,30.77-14.19,47.9-55.3,55.3-33.02,6.05-45.83-27.37-55.3-55.3-3.73-31.68,28.87-58.52,55.3-55.3Z"/><path class="cls-25" d="M87.86,41.35c23.42-4.99,62.7,25.51,55.3,55.3,6.31,26.41-18.7,58.76-55.3,55.3-21.28-3.27-54.86-22.47-55.3-55.3,9.92-22.17,23.54-51.35,55.3-55.3Z"/><path class="cls-7" d="M87.66,41.09c40.11,5.36,56.71,29,55.3,55.3,7.91,37.87-19.68,62.35-55.3,55.3-28.73-2.03-54.26-28.08-55.3-55.3-7.68-24.21,27.26-61.58,55.3-55.3Z"/><path class="cls-22" d="M87.46,40.84c26.59,2.31,45.75,22.82,55.3,55.3-10.83,21.78-34.87,51.42-55.3,55.3-30.48-2.01-57.75-15.84-55.3-55.3-5.8-29.93,31.46-63.85,55.3-55.3Z"/><path class="cls-46" d="M87.25,40.59c29.11,1.21,58.37,17.34,55.3,55.3,4.55,32.14-29.82,63.89-55.3,55.3-34.22-8.21-66.31-19.33-55.3-55.3,10.92-37.83,14.73-49.88,55.3-55.3Z"/><path class="cls-60" d="M87.04,40.35c32.33,3.42,51.53,17.66,55.3,55.3,2,29.47-25.78,58.38-55.3,55.3-33.13-10.57-65.43-15.28-55.3-55.3,7.41-22.33,34.07-64.39,55.3-55.3Z"/><path class="cls-82" d="M86.83,40.11c28.48,4.64,46.08,31.83,55.3,55.3,2.71,21.86-30.59,55.24-55.3,55.3-25.27,2.25-44.41-25.79-55.3-55.3,9.35-36.09,28.6-64.11,55.3-55.3Z"/><path class="cls-36" d="M86.6,39.88c20.13,3.22,63.19,34.94,55.3,55.3-6.73,29.04-13.73,56.39-55.3,55.3-32.96,6.88-60.01-21.64-55.3-55.3-4.59-24.79,21.36-64.28,55.3-55.3Z"/><path class="cls-59" d="M86.38,39.65c22.91,8.43,60.72,21.67,55.3,55.3-5.23,24.28-14.21,53.59-55.3,55.3-33.62-2.2-56.72-24.48-55.3-55.3,10.56-39.95,33.63-64.06,55.3-55.3Z"/><path class="cls-18" d="M86.15,39.42c24.08,4.54,46.61,14.54,55.3,55.3-.77,31.2-27.21,58.86-55.3,55.3-23.37-4.38-63.02-32.31-55.3-55.3-8.12-31.64,21.33-60.31,55.3-55.3Z"/><path class="cls-27" d="M85.91,39.2c29.53,3.32,59.52,28.02,55.3,55.3-5.5,21.41-23.37,46.43-55.3,55.3-36.41-10.97-55.96-33.18-55.3-55.3-7.44-39.22,32.6-61.4,55.3-55.3Z"/><path class="cls-19" d="M85.67,38.98c22.29,8.14,60.98,32.52,55.3,55.3-10.9,33.48-34.6,49.49-55.3,55.3-31.62,9.45-46.86-19.11-55.3-55.3,7.66-28.22,33.63-56.85,55.3-55.3Z"/><path class="cls-71" d="M85.43,38.77c31.64.09,48.78,29.11,55.3,55.3-7.11,26.34-18.49,57.9-55.3,55.3-22.54,6.59-56.4-21.97-55.3-55.3-.97-36.88,22.03-53.25,55.3-55.3Z"/><path class="cls-8" d="M85.18,38.57c25.34-9.44,59.73,35.65,55.3,55.3-2.28,20.32-32.61,48.59-55.3,55.3-30.35-10.5-45.51-16.75-55.3-55.3,8.67-35.13,29.59-65.92,55.3-55.3Z"/><path class="cls-15" d="M84.93,38.37c22.9,7.42,61.79,28.76,55.3,55.3,2.33,39.06-32.57,60.26-55.3,55.3-36.88-9.42-45.32-23.84-55.3-55.3,6.61-26.9,14.4-44.34,55.3-55.3Z"/><path class="cls-54" d="M84.68,38.17c32.07-7.34,45.37,18.44,55.3,55.3-7.07,29.36-24.17,46.76-55.3,55.3-26.07,7.54-65.94-34.38-55.3-55.3,4.37-19.72,18.53-62.87,55.3-55.3Z"/><path class="cls-61" d="M84.42,37.98c29.44,9.83,48.18,34.25,55.3,55.3-9.7,24.28-16.34,62.43-55.3,55.3-25.47-10.4-49.42-24.09-55.3-55.3-8.75-38.52,15.92-47.03,55.3-55.3Z"/><path class="cls-42" d="M84.15,37.79c29.57,8.96,47.38,23.05,55.3,55.3,8.22,40.86-18.43,49.12-55.3,55.3-37.07.57-66.08-33.45-55.3-55.3,3.54-28.86,25.71-52.77,55.3-55.3Z"/><path class="cls-65" d="M83.88,37.61c21.42-10.25,50.89,34.19,55.3,55.3-10.06,22.06-15.26,65.73-55.3,55.3-34.58,5.98-46.31-26.68-55.3-55.3-5.46-25.62,26.59-59.12,55.3-55.3Z"/><path class="cls-38" d="M83.61,37.43c37.42,9.8,55.83,28.78,55.3,55.3,10.01,21.98-30.78,53.18-55.3,55.3-26.99-8.03-65.36-16.18-55.3-55.3-7.86-34.06,25.89-48.32,55.3-55.3Z"/><path class="cls-10" d="M83.34,37.26c23.59-6.11,51.35,20.65,55.3,55.3-10.54,37.22-14.64,63.87-55.3,55.3-33.73-4.3-53.02-32.11-55.3-55.3-8.96-21.57,18.09-63.93,55.3-55.3Z"/><path class="cls-52" d="M83.06,37.1c41.33,7.68,65.61,18.34,55.3,55.3,8.3,37.31-16.44,48.83-55.3,55.3-37.62,3.05-56.26-25.6-55.3-55.3-.3-19.96,31.86-47.69,55.3-55.3Z"/><path class="cls-80" d="M82.77,36.94c26.86.55,57.95,33.38,55.3,55.3-1.49,39.32-28.11,65.06-55.3,55.3-26.35,1.16-59.59-15.31-55.3-55.3-1.12-28.67,22.21-52.38,55.3-55.3Z"/><path class="cls-48" d="M82.49,36.79c37.36-9.1,54.36,22.19,55.3,55.3-9.75,27.72-25.36,62.63-55.3,55.3-33.98,8.82-48.54-34.89-55.3-55.3,10.78-28.59,28.09-56.64,55.3-55.3Z"/><path class="cls-16" d="M82.2,36.64c32.47,8.05,61.79,27.13,55.3,55.3,3.91,29.02-31.3,47.82-55.3,55.3-27.58-3.68-51.24-14.1-55.3-55.3-8.79-40.18,20.3-45.09,55.3-55.3Z"/><path class="cls-56" d="M81.9,36.5c31.95-10.05,48.78,29.95,55.3,55.3,8.72,31.56-25.2,47.16-55.3,55.3-37.13,4.32-47.12-13.8-55.3-55.3,9.28-26.62,14.91-44.31,55.3-55.3Z"/><path class="cls-17" d="M81.61,36.36c29.94-9.46,58.82,26.45,55.3,55.3-8.2,38.09-28.19,49.39-55.3,55.3-20.1-2.68-52.61-18.61-55.3-55.3,6.89-40.42,31.72-48.18,55.3-55.3Z"/><path class="cls-58" d="M81.31,36.23c19.81-11.02,58.3,34.75,55.3,55.3,5.25,29.78-34.12,57.99-55.3,55.3-35.6,4.65-52.07-17.09-55.3-55.3.53-38.1,30.7-53.81,55.3-55.3Z"/><path class="cls-11" d="M81.01,36.1c41.25,8.55,49.83,15.12,55.3,55.3-8.13,40.92-28.97,55.2-55.3,55.3-20.45-3.91-61.35-15.54-55.3-55.3-4.41-26.81,25.36-53.26,55.3-55.3Z"/><path class="cls-53" d="M80.7,35.99c28.11-7.8,52.93,33.13,55.3,55.3,9.18,34.46-32.24,54.61-55.3,55.3-29.7.71-58.65-29.72-55.3-55.3-10.86-33.85,19.13-47.35,55.3-55.3Z"/><path class="cls-63" d="M80.39,35.87c32.42,9.96,62.54,24.6,55.3,55.3,10.98,20.91-27.92,65.16-55.3,55.3-34.8,4.62-48.15-32.33-55.3-55.3-5.22-32.05,30.27-59.52,55.3-55.3Z"/><path class="cls-83" d="M80.08,35.77c28.04,1.75,51.78,25.11,55.3,55.3,4.92,22.41-28.01,55.26-55.3,55.3-31.46,3.45-57.24-33.18-55.3-55.3,1.18-19.95,28.25-61.14,55.3-55.3Z"/><path class="cls-9" d="M79.76,35.67c24.05,6.92,63.19,23.45,55.3,55.3-11.04,36.78-25.56,49.5-55.3,55.3-36.84,10.69-45.26-26.64-55.3-55.3-3.03-35.6,25.02-51.68,55.3-55.3Z"/><path class="cls-26" d="M79.45,35.57c23.28-4.45,56.67,14.17,55.3,55.3-1.68,23.68-14,48.49-55.3,55.3-20.46-.39-55.55-27.61-55.3-55.3-4.36-37.72,33.51-50.47,55.3-55.3Z"/><path class="cls-51" d="M79.13,35.49c25.02,9.51,44.96,27.95,55.3,55.3-2.33,23.52-28.63,59.28-55.3,55.3-34.12.03-57.92-19-55.3-55.3-5.97-30.06,26.2-66.24,55.3-55.3Z"/><path class="cls-35" d="M78.8,35.41c27.86-6.27,52.14,29.35,55.3,55.3-5.49,33.05-33.23,59.43-55.3,55.3-32.23-3.99-56.41-31.86-55.3-55.3-2.79-31.02,26.3-44.62,55.3-55.3Z"/><path class="cls-67" d="M78.48,35.33c32.42,3.63,50.09,35.67,55.3,55.3-2.33,35.72-27.95,49.51-55.3,55.3-23.83.51-64.45-26.52-55.3-55.3-.8-21.14,22.07-58.88,55.3-55.3Z"/><path class="cls-29" d="M78.15,35.27c21.98-7.82,49.68,14.68,55.3,55.3-2.04,32.18-24.36,61.42-55.3,55.3-25.6-2.65-57.84-17.03-55.3-55.3,7.75-23.23,13.86-58.36,55.3-55.3Z"/><path class="cls-49" d="M77.82,35.21c31.63-4.8,59.33,25.57,55.3,55.3-6.94,26.35-20.6,56.07-55.3,55.3-37.02-6.3-60.44-18.58-55.3-55.3,2.96-27.73,16.79-59.22,55.3-55.3Z"/><path class="cls-69" d="M77.49,35.15c40.41,6.88,65.64,28.24,55.3,55.3-9.7,33.82-20.72,64.4-55.3,55.3-37.52,6.3-52.99-17.15-55.3-55.3,6.31-28.69,19.36-47.68,55.3-55.3Z"/><path class="cls-50" d="M77.15,35.11c40.48,10.22,58.26,24.26,55.3,55.3,9.38,23.72-31.95,62.98-55.3,55.3-28.02,3.34-58.76-27.5-55.3-55.3-4.94-37.57,30.4-60.23,55.3-55.3Z"/><path class="cls-76" d="M76.82,35.07c39.83,7.45,54.82,20.97,55.3,55.3-3.27,37.62-17.65,48.61-55.3,55.3-28.17,1.31-52.33-18.56-55.3-55.3-6.63-30.69,15.51-64.68,55.3-55.3Z"/><path class="cls-44" d="M76.48,35.03c20.84,6.22,59.4,17.6,55.3,55.3,5.13,20.88-27.29,46.67-55.3,55.3-29.28,6.85-45.31-15.74-55.3-55.3,8.82-29.44,32.5-62.51,55.3-55.3Z"/><path class="cls-77" d="M76.13,35.01c31.51,5.72,65.35,35.74,55.3,55.3-2.5,30.05-16.7,53.02-55.3,55.3-35.87,3-61.45-26.26-55.3-55.3-9.16-25.61,35.14-58.44,55.3-55.3Z"/><path class="cls-12" d="M75.79,34.99c33.4,5.04,58.02,17,55.3,55.3,4.45,19.9-22.31,64.44-55.3,55.3-40.75,1.7-45.41-30.83-55.3-55.3,10.51-39.48,30.69-52.13,55.3-55.3Z"/><path class="cls-66" d="M75.45,34.98c37.11-10.7,61.74,30.4,55.3,55.3-5.68,28.72-25.63,64.78-55.3,55.3-22.22,7.82-59.02-19.65-55.3-55.3-2.18-22.99,16.39-52.01,55.3-55.3Z"/><path class="cls-13" d="M75.1,34.98c38.65,4.32,54.19,15.22,55.3,55.3,8.7,31.79-16.85,55.4-55.3,55.3-29.88,5.39-57.4-28.32-55.3-55.3,9.94-28.48,26.37-44.88,55.3-55.3Z"/><path class="cls-66" d="M74.41,34.99c28.82-2.14,60.79,16.47,55.3,55.3-1.84,36.37-23.42,48.12-55.3,55.3-29.05,6.54-60.23-19.09-55.3-55.3,8.14-21.26,15.99-44.95,55.3-55.3Z"/><path class="cls-12" d="M73.72,35.03c28.84-10.96,61.25,25.59,55.3,55.3-3.57,37.66-34.01,54.63-55.3,55.3-20.59-10.1-58.92-17.11-55.3-55.3-9.74-31.93,28.32-52.43,55.3-55.3Z"/><path class="cls-77" d="M73.05,35.11c20.06-.8,63.19,19.06,55.3,55.3-9.45,38.48-26.14,57.82-55.3,55.3-23.84,8.3-58.8-15.25-55.3-55.3-10.03-19.48,20.65-66.09,55.3-55.3Z"/><path class="cls-44" d="M72.38,35.21c29.54,11.02,49.68,28.53,55.3,55.3-3.58,24.19-30.17,58.77-55.3,55.3-37.99-3.57-56.56-31.38-55.3-55.3C8.84,56.08,51.03,25.82,72.38,35.21Z"/><path class="cls-76" d="M71.72,35.33c33.83,4.25,53.91,25.03,55.3,55.3.89,30.5-32.63,56.71-55.3,55.3-36.7,3.59-44.38-15.43-55.3-55.3,4.94-25.79,21.72-46.79,55.3-55.3Z"/><path class="cls-50" d="M71.07,35.49c28.08,8.3,51.28,15.77,55.3,55.3,8.72,41.13-17.67,57.33-55.3,55.3-31.7,2.9-51.53-18.04-55.3-55.3.11-31.89,29.68-44.66,55.3-55.3Z"/><path class="cls-69" d="M70.44,35.67c28.87-.08,50.68,30.26,55.3,55.3,1.15,40.38-30.64,58.9-55.3,55.3-25.78,10.24-53-27.41-55.3-55.3.32-39.34,21.62-49.51,55.3-55.3Z"/><path class="cls-49" d="M69.81,35.87c32.64-.04,53,18.07,55.3,55.3,4.97,21.4-20.52,60.61-55.3,55.3-32.11,4.02-55.31-27.37-55.3-55.3-4.58-41.1,14.84-47.55,55.3-55.3Z"/><path class="cls-29" d="M69.19,36.1c40.65-6.8,53.93,34.06,55.3,55.3,6.85,38.72-14.1,48.76-55.3,55.3-27.3-.18-49.47-33.36-55.3-55.3-10.97-28.2,16.56-55.83,55.3-55.3Z"/><path class="cls-67" d="M68.59,36.36c39.61,2.99,46.65,25.44,55.3,55.3.32,39.62-24.73,49.21-55.3,55.3-37.07-7.6-52.44-17.71-55.3-55.3,1.33-25.64,26.74-47.68,55.3-55.3Z"/><path class="cls-35" d="M68,36.64c26.55-11.03,46.81,17.09,55.3,55.3,10.69,27.23-27.43,47.3-55.3,55.3-22.9,8.15-60.15-34.13-55.3-55.3,5.42-39.91,18.65-54.93,55.3-55.3Z"/><path class="cls-51" d="M67.43,36.94c33.69,10.19,50.98,31.33,55.3,55.3,9.27,24.58-22.51,62.43-55.3,55.3-34.1,2.84-44.73-32.42-55.3-55.3-3.47-28.55,30.15-49.09,55.3-55.3Z"/><path class="cls-26" d="M66.86,37.26c20.65-9.93,61.57,29.84,55.3,55.3,4.68,38.71-32.77,45.81-55.3,55.3-28.09,2.62-62.32-27.12-55.3-55.3-5.33-24.57,33.75-65.72,55.3-55.3Z"/><path class="cls-9" d="M66.32,37.61c32.01-9.83,45.35,32.63,55.3,55.3,1.35,24.64-34.42,65.66-55.3,55.3-22.47,1.71-51.26-22.91-55.3-55.3,3.28-39.68,27.83-63.43,55.3-55.3Z"/><path class="cls-83" d="M65.78,37.98c23.17-2.76,46.8,15.64,55.3,55.3,2.27,26.47-20.61,50.1-55.3,55.3-25.89-7.19-50.51-28.38-55.3-55.3C.24,59.41,27.78,44.93,65.78,37.98Z"/><path class="cls-63" d="M65.27,38.37c40-2.06,58.18,29.72,55.3,55.3-10.33,30.77-20.87,60.89-55.3,55.3-35.3-2.47-64.16-25.64-55.3-55.3-1.1-39.85,16.34-65.72,55.3-55.3Z"/><path class="cls-53" d="M64.77,38.77c22.59,9.17,44.4,31.88,55.3,55.3-5.91,41.29-31.91,58.38-55.3,55.3-33.17,8.32-58.68-28.39-55.3-55.3.82-22.03,29.09-59.04,55.3-55.3Z"/><path class="cls-11" d="M64.29,39.2c29.18-2.04,56.39,26.4,55.3,55.3,8.74,20.84-14.88,64.65-55.3,55.3-28.99-3.24-48.61-29.36-55.3-55.3,4.28-23.05,30.24-60.69,55.3-55.3Z"/><path class="cls-58" d="M63.82,39.65c39.86.33,56.89,28.81,55.3,55.3-7.81,32.35-25.35,61.23-55.3,55.3-34.34,10.33-49.59-14.16-55.3-55.3-6.89-22.79,34.21-51.05,55.3-55.3Z"/><path class="cls-17" d="M63.37,40.11c25.69-3.14,55.97,29.97,55.3,55.3,3.92,25.93-33.55,63.73-55.3,55.3-38.06,3.77-53.43-19.36-55.3-55.3-4.65-40.64,31.52-60.69,55.3-55.3Z"/><path class="cls-56" d="M62.95,40.59c39.95,9.49,47.39,26.48,55.3,55.3,7.95,24.15-32.22,63.77-55.3,55.3-25.55,2.18-47.5-35.64-55.3-55.3-2.49-38.76,35.79-51.56,55.3-55.3Z"/><path class="cls-16" d="M62.54,41.09c21.82-.81,55.63,29.01,55.3,55.3,8.36,19.73-33.84,59.44-55.3,55.3-20.3-1.25-56.22-21.72-55.3-55.3C-1.17,72.02,27.42,32.87,62.54,41.09Z"/><path class="cls-48" d="M62.15,41.61c20.33,6.99,50.19,26.3,55.3,55.3,7.8,28.06-23.63,63.52-55.3,55.3-36.82,7.27-49.75-28.69-55.3-55.3-.02-41.46,30.72-51.16,55.3-55.3Z"/><path class="cls-80" d="M61.78,42.14c20.19,7.43,58.92,15.61,55.3,55.3,10.26,29.18-23.16,45.49-55.3,55.3-33.71,4.06-51.89-14.82-55.3-55.3-10.31-29.76,34.25-52.51,55.3-55.3Z"/><path class="cls-52" d="M61.44,42.69c33.04,5.34,60.21,33.12,55.3,55.3,1.72,20.23-21.2,50.38-55.3,55.3-21.44,2.66-48.8-14.19-55.3-55.3,7.92-37.65,31.78-48,55.3-55.3Z"/><path class="cls-10" d="M61.11,43.25c33.82-.13,52.1,29.52,55.3,55.3-2.86,23.84-15.19,52.23-55.3,55.3-37.48-4.27-52.61-17.83-55.3-55.3,7.76-36.94,17.05-62.8,55.3-55.3Z"/><path class="cls-38" d="M60.81,43.83c29.93-7.17,55.07,33.13,55.3,55.3-.99,29.99-30.62,50.89-55.3,55.3-32.93,7.6-54.41-31.72-55.3-55.3,5.91-25.12,23.45-47.87,55.3-55.3Z"/><path class="cls-65" d="M60.53,44.42c19.73-3.04,48.4,25.49,55.3,55.3.08,26.49-29.77,58.16-55.3,55.3-24.63-8.04-65.72-24.34-55.3-55.3-3.15-39.22,16.28-48.67,55.3-55.3Z"/><path class="cls-42" d="M60.28,45.02c39.56-.05,61.47,15.98,55.3,55.3,8.27,29.33-19.56,61.87-55.3,55.3-25.97-4.98-49.38-28.9-55.3-55.3-.04-36.9,28.18-64.13,55.3-55.3Z"/><path class="cls-61" d="M60.05,45.64c33.78-5.06,65.89,28.06,55.3,55.3,5.2,24.66-26.64,56.29-55.3,55.3-22.08,8.9-49.48-24.48-55.3-55.3-4.19-20.89,29.18-60.47,55.3-55.3Z"/><path class="cls-54" d="M59.84,46.26c34.5,10.86,44.61,19.02,55.3,55.3-6.83,21.32-28.29,50.41-55.3,55.3-33.35,2.12-55.91-16.23-55.3-55.3C-.07,70.89,22.52,50.15,59.84,46.26Z"/><path class="cls-15" d="M59.66,46.9c31.61,10.14,61.1,21.02,55.3,55.3-2.04,36.99-15.99,54.16-55.3,55.3-24.24-5.78-45.8-27.05-55.3-55.3-1.45-23.62,24.66-45.58,55.3-55.3Z"/><path class="cls-8" d="M59.51,47.55c19.81,7.63,62.98,16.68,55.3,55.3,5.18,40.16-14.8,64.5-55.3,55.3-33.23-2.3-47.13-22.93-55.3-55.3-3.17-21.51,25-60.41,55.3-55.3Z"/><path class="cls-71" d="M59.38,48.21c23.47-9.59,61.78,13.71,55.3,55.3,7.35,24.75-14.23,51.69-55.3,55.3-37.3,4.17-47.49-15.27-55.3-55.3-1.7-35.87,31.74-47.43,55.3-55.3Z"/><path class="cls-19" d="M59.28,48.87c33.05-7.59,47.21,31.1,55.3,55.3,6.58,40.55-31.81,56.01-55.3,55.3C21.6,152.16,1.6,128.99,3.98,104.17c8.22-37.59,30.94-60.96,55.3-55.3Z"/><path class="cls-27" d="M59.21,49.55c29.97-7.84,56.27,18.93,55.3,55.3-4.69,24.54-21.88,63.35-55.3,55.3C24.27,164.55-5.46,124.88,3.91,104.85c9.69-37.09,29.02-50.71,55.3-55.3Z"/><path class="cls-18" d="M59.16,50.23c33.64,9.5,65.47,21.51,55.3,55.3,3.22,30.4-27.63,57.72-55.3,55.3-26.24-4.02-51-16.91-55.3-55.3,10.67-31.78,33.38-52.61,55.3-55.3Z"/><path class="cls-75" d="M59.15,50.93c37.84,3.34,59.87,30.82,55.3,55.3-10.54,37.72-23.54,51.71-55.3,55.3-24.7,2.76-58.35-19.11-55.3-55.3,2.46-19.89,33.07-47.72,55.3-55.3Z"/><path class="cls-36" d="M59.16,51.62c35.63-9.49,58.06,16.96,55.3,55.3.23,26.63-23.17,50.53-55.3,55.3-34.48-7.77-52.05-23.17-55.3-55.3,6.75-36.42,23.67-64.63,55.3-55.3Z"/><path class="cls-82" d="M59.21,52.3c22.08,9.85,48.48,24.87,55.3,55.3-5.41,30.38-32.18,60.28-55.3,55.3-25.9,5-51.08-28.13-55.3-55.3-10.12-34.23,32.16-60.48,55.3-55.3Z"/><path class="cls-60" d="M59.28,52.98c41.32-2.27,58.6,27.83,55.3,55.3,2.07,33.01-23.44,52.01-55.3,55.3C38.08,171.87.42,143.2,3.98,108.28c-1.67-30.61,31.21-45.44,55.3-55.3Z"/><path class="cls-46" d="M59.38,53.65c34.42-4.5,47.07,24.24,55.3,55.3-7.3,21.86-22.73,58.55-55.3,55.3-25.36-7.3-60.57-31.71-55.3-55.3,6.64-32.61,30.44-52.25,55.3-55.3Z"/><path class="cls-22" d="M59.51,54.31c41.26,2.87,61.31,23.74,55.3,55.3-9.61,40.17-17.54,50-55.3,55.3-23.35,2.59-64.58-20.45-55.3-55.3,8.68-28.74,34.92-61.62,55.3-55.3Z"/><path class="cls-7" d="M59.66,54.95c26.33,8.39,63.34,33.44,55.3,55.3,9.33,40.48-20.59,52.68-55.3,55.3-21.64-10.41-55.45-17.93-55.3-55.3-1.74-24.92,25.84-60.25,55.3-55.3Z"/><path class="cls-25" d="M59.84,55.59c36.35-2.31,65.24,21.97,55.3,55.3-9.62,25.64-22.91,46.83-55.3,55.3-23.25-2.19-57.54-31.82-55.3-55.3-5.95-36.19,29.62-54.67,55.3-55.3Z"/><path class="cls-68" d="M60.05,56.22c26.04,6.06,65.58,16.21,55.3,55.3,2.95,35.04-35.26,63.34-55.3,55.3-25.06-4.79-65.88-15.63-55.3-55.3-1.93-34.17,32.19-62.94,55.3-55.3Z"/><path class="cls-78" d="M60.28,56.83c37.88-5.99,52.17,21.15,55.3,55.3,4.42,20.14-19,59.38-55.3,55.3-37.09-7.54-65.49-15.27-55.3-55.3-1.53-27.23,26.02-62.15,55.3-55.3Z"/><path class="cls-31" d="M60.53,57.44c27.89,10.36,49.05,28.19,55.3,55.3-2.26,29.73-16.1,59.36-55.3,55.3-35.57,7.02-50.79-28.06-55.3-55.3C-.33,82.61,40.21,66.32,60.53,57.44Z"/><path class="cls-6" d="M60.81,58.03c23.26,1.55,52.94,23.39,55.3,55.3-10.04,41.27-35.7,52.66-55.3,55.3-26.47,5.08-44.93-16.56-55.3-55.3-1.08-33.52,28.63-62.88,55.3-55.3Z"/><path class="cls-72" d="M61.11,58.6c36.6-3.19,58.08,17.91,55.3,55.3-4.98,35.56-29.28,46.18-55.3,55.3-20.65-1.69-52.79-32.93-55.3-55.3-2.81-39.97,35.6-48.58,55.3-55.3Z"/><path class="cls-33" d="M61.44,59.16c24.5,5.88,59.01,34.22,55.3,55.3-7.76,27.14-20.62,50.46-55.3,55.3-31.08,7.92-58.18-33.77-55.3-55.3C-.05,80.98,41.87,49.05,61.44,59.16Z"/><path class="cls-24" d="M61.78,59.71c23,5.2,53.35,25.83,55.3,55.3-4.54,28.33-14.51,65.91-55.3,55.3-25.85,6.63-65.39-26.59-55.3-55.3C-.19,77.39,35.7,66.42,61.78,59.71Z"/><path class="cls-21" d="M62.15,60.24c39.76-9.55,44.55,18.4,55.3,55.3-10.55,35.44-16.12,46.83-55.3,55.3-36.01-6.74-52.09-17.3-55.3-55.3,2.97-40.8,17.24-63.74,55.3-55.3Z"/><path class="cls-55" d="M62.54,60.76c34.68,6.92,44.65,29.49,55.3,55.3-.98,37.03-28.27,64.57-55.3,55.3-20.04,1.1-55.14-24.05-55.3-55.3C-1.5,83.79,34.13,60.73,62.54,60.76Z"/><path class="cls-20" d="M62.95,61.26c33.3,3.02,54.93,32.64,55.3,55.3,3.33,22.25-26.5,50.34-55.3,55.3-38.09-4.45-57.15-24.68-55.3-55.3,1.3-38.03,25.37-59.51,55.3-55.3Z"/><path class="cls-39" d="M63.37,61.74c41.09-6.63,46.57,32.02,55.3,55.3,4.97,33.31-22.69,46.91-55.3,55.3-28.03-6.98-50.12-14.77-55.3-55.3-1.25-24.11,33.46-63.17,55.3-55.3Z"/><path class="cls-81" d="M63.82,62.21c24.03.79,51.87,26.49,55.3,55.3,10.67,41.11-18.05,61.96-55.3,55.3-23.82,2.91-54.78-21.49-55.3-55.3,7.27-20.9,17.61-61.95,55.3-55.3Z"/><path class="cls-37" d="M64.29,62.65c22.06-1.85,56.44,17.89,55.3,55.3-10.23,19.88-22.48,54.34-55.3,55.3-20.07-8.39-51.45-28.95-55.3-55.3.71-26.48,25.45-51.96,55.3-55.3Z"/><path class="cls-28" d="M64.77,63.08c41.18,5.25,46.19,19.33,55.3,55.3,9.72,21.84-29.67,52.92-55.3,55.3-35.63,1.42-65.79-14.12-55.3-55.3-5.62-20.36,33.71-65.76,55.3-55.3Z"/><path class="cls-30" d="M65.27,63.49c34.14,8.53,54.32,19.25,55.3,55.3-4.45,30.61-14.33,54.31-55.3,55.3-22.36,4.01-55.41-27.02-55.3-55.3,3.51-21.61,17.36-53.4,55.3-55.3Z"/><path class="cls-73" d="M65.78,63.88c35.9-8.43,53.52,33.97,55.3,55.3-1.98,35.95-17.96,53.24-55.3,55.3-39.28-2.81-61.94-27.61-55.3-55.3,1.83-36.27,18.72-51.15,55.3-55.3Z"/><path class="cls-41" d="M66.32,64.24c33.68,9.7,47.19,27.48,55.3,55.3-2.62,19.84-35.39,50.89-55.3,55.3-28.65-8.94-53.44-32.29-55.3-55.3-9.32-26.97,17.5-62.55,55.3-55.3Z"/><path class="cls-64" d="M66.86,64.59c36.07-.78,50.11,30.34,55.3,55.3-5.46,31.22-34.24,63.17-55.3,55.3-34.36-5.76-54.35-17.18-55.3-55.3,1.77-37.37,22.07-50.15,55.3-55.3Z"/><path class="cls-74" d="M67.43,64.91c31.6,6.91,46.91,15.29,55.3,55.3-8.24,39.39-18.43,62.67-55.3,55.3-22.28-.02-54.25-20.38-55.3-55.3-10.67-28.95,27.95-59.94,55.3-55.3Z"/><path class="cls-79" d="M68,65.22c35.68-.77,61.28,16.07,55.3,55.3-4.57,30.79-25.46,53.28-55.3,55.3-32.24-5.47-49.33-23.09-55.3-55.3,9.87-27.66,20.61-58.18,55.3-55.3Z"/><path class="cls-23" d="M68.59,65.49c27.08,3.33,48.04,25.2,55.3,55.3-3.35,39.46-35.16,56.41-55.3,55.3-20.5,9.59-61.74-29.8-55.3-55.3,3.73-27.05,22.45-55.85,55.3-55.3Z"/><path class="cls-70" d="M69.19,65.75c39.11,4.77,50.83,24.35,55.3,55.3-3.83,22.54-33.26,52.88-55.3,55.3-33.9-2.04-48.35-15.76-55.3-55.3-3.1-24.29,29.21-56.11,55.3-55.3Z"/><path class="cls-62" d="M69.81,65.98c29.69.05,49.98,14.73,55.3,55.3,7.15,23.47-30.79,57.61-55.3,55.3-30.17-3.39-52.82-29.26-55.3-55.3-6.77-33.92,34.87-46.02,55.3-55.3Z"/><path class="cls-40" d="M70.44,66.19c38.96,4.87,53.77,25.46,55.3,55.3-8.46,25.43-17.03,61.54-55.3,55.3-29.96,2.33-48.03-28.53-55.3-55.3-.72-35.39,34.39-54.56,55.3-55.3Z"/><path class="cls-47" d="M71.07,66.37c37.22-3.9,56.96,33.32,55.3,55.3-4.42,25.98-23.12,62.05-55.3,55.3-25.66,2.07-65.95-28.25-55.3-55.3,4.98-31.08,26.51-55.92,55.3-55.3Z"/><path class="cls-45" d="M71.72,66.52c38.24,8.55,65.69,15.29,55.3,55.3-2.26,23.21-30.84,49.13-55.3,55.3-22.79,3.39-62.27-24.92-55.3-55.3,8.51-38.02,16.46-49.63,55.3-55.3Z"/><path class="cls-57" d="M72.38,66.65c35.72,10.54,55.96,23.25,55.3,55.3-.07,24.13-14.04,57.92-55.3,55.3-37.33-1.47-46.25-32.8-55.3-55.3-3.06-35.33,18.8-52.28,55.3-55.3Z"/><path class="cls-43" d="M73.05,66.75c28.16.68,64.91,15.27,55.3,55.3,8.17,30.71-24.4,44.27-55.3,55.3-26.52-5.2-55.9-31.36-55.3-55.3-6.74-22.35,15.87-45.01,55.3-55.3Z"/><path class="cls-32" d="M73.72,66.82c21.61-5.98,60.87,18.77,55.3,55.3-8.88,26.19-33.79,47.9-55.3,55.3-40.96.75-44.6-23.37-55.3-55.3-7.24-32.36,26.95-53.65,55.3-55.3Z"/><path class="cls-14" d="M74.41,66.86c32.46,8.26,56.7,28.19,55.3,55.3-6.59,27.51-20.01,45.84-55.3,55.3-22.77-9.73-55.28-26.58-55.3-55.3,10.02-35.92,22.58-52.01,55.3-55.3Z"/><path class="cls-34" d="M75.1,66.88c23.81,5.69,46.22,35.44,55.3,55.3,5.74,27.31-30.35,49.21-55.3,55.3-24.04-.71-62.82-21.2-55.3-55.3-6.75-20.98,15.73-64.09,55.3-55.3Z"/><path class="cls-2" d="M52.95,32.86c4.51,3.19.17,17.12-9.97,31.51-10.14,14.39-21.79,23.17-26.31,20-4.51-3.19-.17-17.12,9.97-31.51,10.14-14.39,21.79-23.17,26.31-20Z"/><path class="cls-3" d="M116.73,132.37c2.31,5.02-8.41,14.91-24.39,22.31-15.98,7.4-30.46,9.18-32.79,4.17-2.31-5.02,8.41-14.91,24.39-22.31,15.98-7.4,30.46-9.18,32.79-4.17Z"/><ellipse class="cls-4" cx="34.24" cy="132.1" rx="22.47" ry="41.6" transform="translate(-79.98 57.43) rotate(-42.29)"/><ellipse class="cls-5" cx="125.18" cy="94.87" rx="20.13" ry="38.29" transform="translate(-11.28 17.1) rotate(-7.48)"/></g></g></g></g></g></svg>