<?xml version="1.0" encoding="UTF-8"?>
<svg id="Layer_1" data-name="Layer 1" xmlns="http://www.w3.org/2000/svg" xmlns:xlink="http://www.w3.org/1999/xlink" version="1.1" viewBox="0 0 50 50">
  <defs>
    <style>
      .cls-1 {
        clip-path: url(#clippath);
      }

      .cls-2 {
        fill: none;
      }

      .cls-2, .cls-3, .cls-4 {
        stroke-width: 0px;
      }

      .cls-3 {
        fill: #061a40;
      }

      .cls-4 {
        fill: #fff;
      }
    </style>
    <clipPath id="clippath">
      <rect class="cls-2" width="50" height="50"/>
    </clipPath>
  </defs>
  <g class="cls-1">
    <g>
      <path class="cls-3" d="M25,0h0c13.8,0,25,11.2,25,25h0c0,13.8-11.2,25-25,25h0C11.2,50,0,38.8,0,25h0C0,11.2,11.2,0,25,0Z"/>
      <path class="cls-4" d="M32.1,26h-14.2c-.5,0-1-.4-1-1s.4-1,1-1h11.9l-5.8-5.8c-.4-.4-.4-1,0-1.4s1-.4,1.4,0l7.5,7.5c.3.3.4.7.2,1-.1.4-.5.6-.9.6Z"/>
      <path class="cls-4" d="M24.6,33.4c-.2,0-.5,0-.7-.3-.4-.4-.4-1,0-1.4l7.5-7.5c.4-.4,1-.4,1.4,0,.4.4.4,1,0,1.4l-7.5,7.5c-.2.2-.4.3-.7.3Z"/>
    </g>
  </g>
</svg>