<?xml version="1.0" encoding="UTF-8"?><svg id="Layer_2" xmlns="http://www.w3.org/2000/svg" viewBox="0 0 187.07 238.53"><defs><style>.cls-1{fill:#fff;stroke-width:0px;}</style></defs><g id="Energy"><path class="cls-1" d="M146.48,138.83l4.03-5.39c1.07-1.44.93-3.45-.34-4.72l-5.47-5.47c-1.27-1.27-3.28-1.41-4.72-.34l-5.4,4.03c-2.02-.84-2.56-1.06-4.58-1.89l-.97-6.67c-.26-1.78-1.78-3.09-3.58-3.09h-7.74c-1.8,0-3.32,1.32-3.58,3.09l-.97,6.67c-2.02.83-2.56,1.05-4.58,1.89l-5.4-4.03c-1.44-1.07-3.45-.93-4.72.34l-5.47,5.47c-1.27,1.27-1.41,3.28-.34,4.72l4.03,5.4c-.84,2.02-1.06,2.56-1.9,4.58l-6.67.97c-1.78.26-3.1,1.78-3.1,3.58v7.74c0,1.8,1.32,3.32,3.1,3.58l6.67.97c.84,2.02,1.06,2.56,1.9,4.58l-4.03,5.39c-1.07,1.44-.93,3.45.34,4.72l5.47,5.47c1.27,1.27,3.28,1.42,4.72.34l5.4-4.03c2.02.83,2.56,1.06,4.58,1.89l.97,6.67c.26,1.77,1.78,3.09,3.58,3.09h7.74c1.79,0,3.32-1.32,3.58-3.09l.97-6.67c2.02-.83,2.56-1.06,4.58-1.89l5.4,4.03c1.44,1.08,3.45.93,4.72-.34l5.47-5.47c1.27-1.27,1.41-3.28.34-4.72l-4.04-5.41c.83-2.02,1.06-2.55,1.89-4.57l6.68-.97c1.78-.26,3.1-1.78,3.1-3.58v-7.74c0-1.79-1.32-3.32-3.1-3.58l-6.67-.97c-.84-2.02-1.06-2.56-1.9-4.58ZM121.59,165.28c-7.43,0-13.45-6.02-13.45-13.45s6.02-13.45,13.45-13.45,13.45,6.02,13.45,13.45-6.02,13.45-13.45,13.45Z"/><circle class="cls-1" cx="15.47" cy="66.53" r="15.47"/><circle class="cls-1" cx="121.59" cy="15.47" r="15.47"/><path class="cls-1" d="M15.44,93.26c-.9,0-1.8-.06-2.64-.11l21.26,95.22h17.21l-22.05-98.93c-3.99,2.42-8.72,3.83-13.78,3.83Z"/><path class="cls-1" d="M102.39,34.09c-3.94-4.05-6.58-9.34-7.31-15.24l-60.46,29.14c3.94,4.05,6.58,9.33,7.31,15.18l60.46-29.08Z"/><path class="cls-1" d="M130.01,40.85c-2.64.84-5.51,1.35-8.44,1.35s-5.79-.51-8.44-1.35v21.43l-21.43,21.32c-2.14,2.08-2.47,5.4-.79,7.88l8.89,13.05c1.18,1.74,3.15,2.7,5.12,2.7,1.24,0,2.42-.34,3.49-1.07,2.81-1.91,3.54-5.74,1.63-8.55l-6.02-8.83,17.55-17.44,17.55,17.44-6.02,8.83c-1.91,2.81-1.18,6.64,1.69,8.55,1.01.73,2.25,1.07,3.43,1.07,2.03,0,3.94-.96,5.12-2.7l8.89-13.05c1.69-2.48,1.35-5.79-.73-7.88l-21.49-21.32v-21.43Z"/><path class="cls-1" d="M167.62,199.63H25.09c-10.72,0-19.45,8.73-19.45,19.45s8.73,19.45,19.45,19.45h142.53c10.72,0,19.45-8.73,19.45-19.45s-8.73-19.45-19.45-19.45ZM25.09,228.11c-4.98,0-9.07-4.05-9.07-9.03s4.09-9.07,9.07-9.07,9.07,4.05,9.07,9.07-4.09,9.03-9.07,9.03ZM53.61,228.11c-5.02,0-9.07-4.05-9.07-9.03s4.05-9.07,9.07-9.07,9.03,4.05,9.03,9.07-4.05,9.03-9.03,9.03ZM82.1,228.11c-4.98,0-9.03-4.05-9.03-9.03s4.05-9.07,9.03-9.07,9.07,4.05,9.07,9.07-4.05,9.03-9.07,9.03ZM110.62,228.11c-4.98,0-9.07-4.05-9.07-9.03s4.09-9.07,9.07-9.07,9.07,4.05,9.07,9.07-4.08,9.03-9.07,9.03ZM139.14,228.11c-5.02,0-9.07-4.05-9.07-9.03s4.05-9.07,9.07-9.07,9.03,4.05,9.03,9.07-4.05,9.03-9.03,9.03ZM167.62,228.11c-4.98,0-9.07-4.05-9.07-9.03s4.09-9.07,9.07-9.07,9.07,4.05,9.07,9.07-4.09,9.03-9.07,9.03Z"/></g></svg>