<?xml version="1.0" encoding="UTF-8"?>
<svg id="Layer_2" data-name="Layer 2" xmlns="http://www.w3.org/2000/svg" version="1.1" viewBox="0 0 906.7 291.8">
  <defs>
    <style>
      .cls-1 {
        fill: #000;
        stroke-width: 0px;
      }
    </style>
  </defs>
  <g id="Layer_1-2" data-name="Layer 1-2">
    <g>
      <path class="cls-1" d="M279.5,277l-42.9-47.7c23.8-24.7,35.6-56.4,35.6-95s-5.9-50.6-17.8-71.2c-11.9-20.5-28.1-36.2-48.7-47C185.2,5.4,162,0,136.1,0s-49.1,5.4-69.6,16.2c-20.5,10.8-36.8,26.4-48.6,47C5.9,83.7,0,107.4,0,134.3s5.9,50.7,17.8,71.3c11.9,20.6,28.1,36.3,48.6,47.2s44.8,16.3,69.6,16.3,47.3-5.1,67.4-15.4l34.9,38.2,41-14.8h0ZM60.9,83.8c.3,6.2,1.2,12,2.7,17.3,1.9,6.8,4.2,12.5,7.1,17.1,2.8,4.6,6.5,8.8,11,12.7,4.5,3.8,8.9,6.9,13.1,9.2,4.2,2.3,9.1,4.6,14.6,6.9,4.5,2,10.5,4.3,18,7,7.5,2.7,13.2,4.9,17.2,6.6,4,1.7,8.2,4,12.8,6.8,4.5,2.8,7.8,6.1,9.8,10,2,3.9,3.1,8.4,3.2,13.7.1,9.3-.7,40.7-49.1,35.1-19-2.7-35.1-10.6-48.3-23.7-16.6-16.5-24.9-39.2-24.9-68.1,0-18.5,3.9-34.7,11.8-48.5.4-.7.8-1.3,1.2-2ZM216.2,177.4c-.6-6.2-1.8-12-3.5-17.3-2.7-8.2-5.8-14.9-9.6-20-3.7-5.2-8.7-9.9-14.9-14.1-6.2-4.3-11.8-7.5-16.9-9.8-5.1-2.3-11.3-4.7-18.5-7.1-1.8-.6-4.5-1.5-8.1-2.7-3.6-1.1-6.3-2-8-2.6-1.8-.6-4.2-1.4-7.3-2.6-3.1-1.1-5.4-2.1-7-3-1.6-.8-3.4-1.9-5.6-3.3-2.2-1.4-3.9-2.8-5-4.1-1.2-1.3-2.4-2.9-3.6-4.7-1.2-1.8-2.1-3.7-2.5-5.8-.5-2.1-.7-4.3-.7-6.8,0-8.7,2.9-15.2,8.7-19.7,4.4-3.4,19.5-12.1,42.2-8,5.1,1,10,2.4,14.8,4.3,10.7,4.1,20,10,28,17.6,7.9,7.6,14.1,17.1,18.7,28.6,4.5,11.5,6.8,24.1,6.8,38s-2.6,30.7-7.9,43Z"/>
      <g>
        <path class="cls-1" d="M393.5,122.4l-7.5,2.6-8.2-8.9c-4.8,2.8-10.1,4.2-16.1,4.2s-8.2-.7-11.9-2.1c-3.7-1.4-6.8-3.4-9.5-6-2.7-2.6-4.8-5.8-6.3-9.7s-2.3-8.1-2.3-12.8.8-8.9,2.3-12.7c1.5-3.9,3.6-7.1,6.3-9.7,2.7-2.6,5.9-4.6,9.5-6s7.6-2.1,11.9-2.1,8.1.7,11.8,2.1,6.8,3.4,9.5,6,4.8,5.8,6.3,9.7c1.5,3.9,2.3,8.1,2.3,12.7,0,9-2.7,16.3-8.1,21.9l9.9,10.8h0ZM340,89.7c0,3.6.6,6.9,1.7,9.8,1.1,2.9,2.7,5.4,4.6,7.3,2,1.9,4.2,3.4,6.9,4.4,2.6,1,5.5,1.5,8.5,1.5s5.9-.5,8.5-1.5c2.6-1,4.9-2.5,6.8-4.4s3.5-4.3,4.6-7.3c1.1-2.9,1.7-6.2,1.7-9.8s-.5-6.7-1.7-9.6c-1.1-2.9-2.6-5.3-4.6-7.1s-4.2-3.3-6.8-4.4c-2.6-1-5.4-1.5-8.5-1.5s-5.9.5-8.5,1.5-4.9,2.5-6.9,4.4c-2,1.9-3.5,4.3-4.6,7.1s-1.7,6.1-1.7,9.6Z"/>
        <path class="cls-1" d="M452,120.3c-4.2,0-7.9-.8-11.1-2.3-3.3-1.6-5.9-3.9-7.8-7.1-2-3.2-2.9-6.9-2.9-11.3v-39.6h8.4v38.5c0,4.7,1.2,8.3,3.8,10.7s5.8,3.6,9.8,3.6,7.3-1.2,9.8-3.6c2.5-2.4,3.8-6,3.8-10.7v-38.5h8.4v39.6c0,4.3-1,8.1-3,11.3s-4.6,5.5-7.9,7.1c-3.3,1.6-7,2.3-11.2,2.3h0Z"/>
        <path class="cls-1" d="M553.4,119.5l-5-13.9h-26.6l-5,13.9h-8.7l21.9-59.6h10.1l22,59.6h-8.7ZM524.4,98.3h21.4l-10.7-30-10.7,30Z"/>
        <path class="cls-1" d="M638.6,60h8.3v59.6h-9.1l-31.1-47.3v47.3h-8.3v-59.6h9l31.2,47v-47h0Z"/>
        <path class="cls-1" d="M721.8,60v7.5h-15.1v52h-8.3v-52h-15.1v-7.5h38.5Z"/>
        <path class="cls-1" d="M778.8,120.3c-4.2,0-7.9-.8-11.1-2.3s-5.9-3.9-7.8-7.1c-2-3.2-2.9-6.9-2.9-11.3v-39.6h8.4v38.5c0,4.7,1.2,8.3,3.8,10.7s5.8,3.6,9.8,3.6,7.3-1.2,9.8-3.6c2.5-2.4,3.8-6,3.8-10.7v-38.5h8.4v39.6c0,4.3-1,8.1-3,11.3-2,3.2-4.6,5.5-7.9,7.1s-7,2.3-11.2,2.3Z"/>
        <path class="cls-1" d="M906.7,119.5h-8.2l-3.9-48.4-18.4,48.4h-5.1l-18.3-48.3-4,48.3h-8.3l4.6-59.6h11.3l17.1,45,17.2-45h11.3l4.5,59.6h0Z"/>
      </g>
      <path class="cls-1" d="M355.9,233.9c-6.3,0-11.5-1.4-15.7-4.2-4.2-2.8-6.8-6.8-7.8-11.8l8.5-2c.7,3.4,2.4,6.1,5.1,8,2.8,1.9,6.1,2.9,10.1,2.9s3.2-.2,4.6-.5,2.7-.9,3.9-1.6c1.2-.7,2.1-1.8,2.8-3.1.7-1.3,1-2.8,1-4.5,0-1.4-.4-2.6-1-3.6s-1.3-1.9-2-2.6-1.9-1.3-3.7-2.1c-1.8-.7-3.1-1.2-3.9-1.4-.8-.2-2.4-.7-4.8-1.4-.2,0-.4-.1-.5-.2-1.6-.4-2.9-.8-4-1.1-1-.3-2.3-.7-3.7-1.3-1.4-.6-2.6-1.1-3.5-1.6-.9-.6-1.9-1.2-2.9-2.1-1-.8-1.8-1.7-2.4-2.6-.6-.9-1-2.1-1.4-3.4s-.6-2.7-.6-4.2c0-2.2.3-4.2,1-6,.7-1.8,1.6-3.4,2.9-4.7,1.2-1.3,2.7-2.4,4.4-3.3,1.7-.9,3.5-1.6,5.5-2,2-.4,4-.6,6.2-.6s5.2.3,7.6.9c2.4.6,4.5,1.4,6.5,2.6,2,1.2,3.7,2.7,5.1,4.6,1.4,1.9,2.4,4.1,2.9,6.6l-8.1,2.1c-.7-3.2-2.3-5.6-4.7-7.2s-5.4-2.4-8.9-2.4-4,.3-5.8.9c-1.7.6-3.2,1.6-4.4,3.1-1.2,1.5-1.8,3.3-1.8,5.4s.1,1.7.4,2.4.6,1.4,1,1.9c.4.5,1,1.1,1.8,1.6s1.5.9,2.1,1.3c.6.3,1.5.7,2.7,1.1,1.2.4,2.1.7,2.9.9s1.8.5,3.2.9c2.5.7,4.5,1.3,5.9,1.7,1.4.4,3.1,1.1,5.3,2.1,2.1,1,3.8,2,4.9,3.1,1.1,1.1,2.1,2.6,3,4.4.9,1.8,1.3,3.9,1.3,6.2s-.4,4.5-1.1,6.4-1.8,3.6-3.1,4.9c-1.3,1.3-2.9,2.4-4.7,3.3-1.8.9-3.8,1.6-5.8,2s-4.2.6-6.5.6h0Z"/>
      <path class="cls-1" d="M438.9,173.6c5.3,0,9.7,1.8,13,5.3s5,7.9,5,13.1-1.6,9.6-5,13.1c-3.3,3.5-7.6,5.2-13,5.2h-14.6v22.8h-8.4v-59.6h23,0ZM437.7,203.1c3.4,0,6.1-1,8-3s2.9-4.7,2.9-8.1-1-6-2.9-8c-1.9-2.1-4.6-3.1-8-3.1h-13.3v22.3h13.3Z"/>
      <path class="cls-1" d="M494.7,233.1v-59.6h8.4v59.6h-8.4Z"/>
      <path class="cls-1" d="M586.3,173.6h8.3v59.6h-9.1l-31.1-47.3v47.3h-8.3v-59.6h9l31.2,47.1v-47.1h0Z"/>
    </g>
  </g>
</svg>