<?xml version="1.0" encoding="UTF-8"?>
<svg id="Layer_2" data-name="Layer 2" xmlns="http://www.w3.org/2000/svg" version="1.1" viewBox="0 0 959 198.9">
  <defs>
    <style>
      .cls-1 {
        fill: #fff;
        stroke-width: 0px;
      }
    </style>
  </defs>
  <g id="Layer_1-2" data-name="Layer 1-2">
    <g>
      <g>
        <path class="cls-1" d="M245.2,126.2h3.6v25.4h-3.9l-13.3-20.2v20.2h-3.5v-25.4h3.8l13.3,20.1v-20.1h0Z"/>
        <path class="cls-1" d="M273.6,129.4h-10.2v7.9h9v3.2h-9v7.9h10.2v3.2h-13.8v-25.4h13.8v3.2h0Z"/>
        <path class="cls-1" d="M299.4,151.6l-2.1-5.9h-11.4l-2.1,5.9h-3.7l9.4-25.4h4.3l9.4,25.4h-3.7,0ZM287.1,142.6h9.1l-4.6-12.8-4.6,12.8h0Z"/>
        <path class="cls-1" d="M325,151.6l-6.6-11.4h-3.6v11.4h-3.6v-25.4h8.6c1.3,0,2.4.2,3.5.6s1.8.9,2.4,1.6,1.1,1.4,1.4,2.3c.3.9.5,1.8.5,2.8,0,1.8-.5,3.2-1.5,4.4s-2.4,1.9-4.1,2.2l7.2,11.6h-4.2ZM314.9,129.3v8.2h4.5c1.6,0,2.8-.4,3.6-1.1.8-.7,1.2-1.7,1.2-3s-.4-2.2-1.2-3-2-1.1-3.6-1.1h-4.5Z"/>
        <path class="cls-1" d="M352.9,148.4h14.4v3.2h-18.8v-2.9l14-19.3h-14v-3.2h18.3v2.9l-13.9,19.2h0Z"/>
        <path class="cls-1" d="M389.9,129.4h-10.2v7.9h9v3.2h-9v7.9h10.2v3.2h-13.8v-25.4h13.8v3.2h0Z"/>
        <path class="cls-1" d="M413,151.6l-6.6-11.4h-3.6v11.4h-3.6v-25.4h8.6c1.3,0,2.4.2,3.5.6s1.8.9,2.4,1.6,1.1,1.4,1.4,2.3c.3.9.5,1.8.5,2.8,0,1.8-.5,3.2-1.5,4.4s-2.4,1.9-4.1,2.2l7.2,11.6h-4.2ZM402.9,129.3v8.2h4.5c1.6,0,2.8-.4,3.6-1.1.8-.7,1.2-1.7,1.2-3s-.4-2.2-1.2-3-2-1.1-3.6-1.1h-4.5Z"/>
        <path class="cls-1" d="M436,152c-2.4,0-4.6-.5-6.5-1.6-1.9-1-3.4-2.6-4.5-4.6s-1.7-4.3-1.7-7,.3-3.8,1-5.4c.6-1.6,1.5-3,2.7-4.1s2.5-2,4-2.6,3.2-.9,5-.9,3.5.3,5,.9c1.5.6,2.9,1.5,4,2.6s2,2.5,2.7,4.1c.6,1.6,1,3.5,1,5.4s-.3,3.8-1,5.4c-.6,1.6-1.5,3-2.7,4.1s-2.5,2-4,2.6c-1.5.6-3.2.9-5,.9ZM436,148.6c1.3,0,2.5-.2,3.6-.7,1.1-.4,2.1-1.1,2.9-1.9s1.5-1.8,1.9-3.1.7-2.6.7-4.1-.2-2.9-.7-4.1-1.1-2.2-1.9-3.1c-.8-.8-1.8-1.4-2.9-1.9-1.1-.4-2.3-.7-3.6-.7s-2.5.2-3.6.7-2.1,1.1-2.9,1.9c-.8.8-1.5,1.8-2,3.1s-.7,2.6-.7,4.1.2,2.9.7,4.1c.5,1.2,1.1,2.3,2,3.1.8.8,1.8,1.4,2.9,1.9s2.3.7,3.6.7Z"/>
        <path class="cls-1" d="M474.4,148.4h8.7v3.2h-12.3v-25.4h3.6v22.2h0Z"/>
        <path class="cls-1" d="M501.5,152c-2.4,0-4.6-.5-6.5-1.6-1.9-1-3.4-2.6-4.5-4.6s-1.7-4.3-1.7-7,.3-3.8,1-5.4c.6-1.6,1.5-3,2.7-4.1s2.5-2,4-2.6,3.2-.9,5-.9,3.5.3,5,.9c1.5.6,2.9,1.5,4,2.6s2,2.5,2.7,4.1c.7,1.6,1,3.5,1,5.4s-.3,3.8-1,5.4c-.7,1.6-1.5,3-2.7,4.1s-2.5,2-4,2.6c-1.5.6-3.2.9-5,.9h0ZM501.5,148.6c1.3,0,2.5-.2,3.6-.7,1.1-.4,2.1-1.1,2.9-1.9s1.5-1.8,1.9-3.1.7-2.6.7-4.1-.2-2.9-.7-4.1-1.1-2.2-1.9-3.1c-.8-.8-1.8-1.4-2.9-1.9-1.1-.4-2.3-.7-3.6-.7s-2.5.2-3.6.7-2.1,1.1-2.9,1.9c-.8.8-1.5,1.8-2,3.1s-.7,2.6-.7,4.1.2,2.9.7,4.1c.5,1.2,1.1,2.3,2,3.1.8.8,1.8,1.4,2.9,1.9s2.3.7,3.6.7Z"/>
        <path class="cls-1" d="M531.1,152c-2.7,0-4.9-.6-6.7-1.8-1.8-1.2-2.9-2.9-3.3-5l3.7-.9c.3,1.5,1,2.6,2.2,3.4,1.2.8,2.6,1.2,4.3,1.2s1.4,0,2-.2,1.2-.4,1.7-.7c.5-.3.9-.8,1.2-1.3.3-.6.4-1.2.4-1.9,0-.6-.2-1.1-.4-1.6s-.6-.8-.8-1.1-.8-.6-1.6-.9-1.3-.5-1.7-.6c-.3-.1-1-.3-2-.6-.1,0-.2,0-.2,0-.7-.2-1.2-.4-1.7-.5-.4-.1-1-.3-1.6-.6s-1.1-.5-1.5-.7-.8-.5-1.2-.9-.8-.7-1-1.1c-.2-.4-.5-.9-.6-1.4s-.2-1.2-.2-1.8c0-.9.2-1.8.4-2.6s.7-1.4,1.2-2c.5-.6,1.1-1,1.9-1.4.7-.4,1.5-.7,2.3-.9.8-.2,1.7-.3,2.7-.3s2.2.1,3.2.4,1.9.6,2.8,1.1c.8.5,1.6,1.2,2.2,2,.6.8,1,1.8,1.2,2.8l-3.5.9c-.3-1.4-1-2.4-2-3.1s-2.3-1-3.8-1-1.7.1-2.5.4c-.7.2-1.4.7-1.9,1.3s-.8,1.4-.8,2.3,0,.7.2,1,.3.6.4.8.4.4.8.7.7.4.9.5.7.3,1.2.5c.5.2.9.3,1.2.4s.8.2,1.4.4c1.1.3,1.9.5,2.5.7.6.2,1.3.5,2.2.9s1.6.9,2.1,1.3c.5.5.9,1.1,1.3,1.9s.6,1.7.6,2.6-.2,1.9-.5,2.7c-.3.8-.8,1.5-1.3,2.1-.6.6-1.2,1-2,1.4s-1.6.7-2.5.8-1.8.3-2.8.3h0Z"/>
        <path class="cls-1" d="M557.2,152c-2.7,0-4.9-.6-6.7-1.8-1.8-1.2-2.9-2.9-3.3-5l3.7-.9c.3,1.5,1,2.6,2.2,3.4,1.2.8,2.6,1.2,4.3,1.2s1.4,0,2-.2,1.2-.4,1.7-.7c.5-.3.9-.8,1.2-1.3.3-.6.4-1.2.4-1.9,0-.6-.2-1.1-.4-1.6s-.6-.8-.8-1.1-.8-.6-1.6-.9-1.3-.5-1.7-.6c-.3-.1-1-.3-2-.6-.1,0-.2,0-.2,0-.7-.2-1.2-.4-1.7-.5-.4-.1-1-.3-1.6-.6s-1.1-.5-1.5-.7-.8-.5-1.2-.9-.8-.7-1-1.1c-.2-.4-.5-.9-.6-1.4s-.2-1.2-.2-1.8c0-.9.2-1.8.4-2.6s.7-1.4,1.2-2c.5-.6,1.1-1,1.9-1.4.7-.4,1.5-.7,2.3-.9.8-.2,1.7-.3,2.7-.3s2.2.1,3.2.4,1.9.6,2.8,1.1c.8.5,1.6,1.2,2.2,2,.6.8,1,1.8,1.2,2.8l-3.5.9c-.3-1.4-1-2.4-2-3.1s-2.3-1-3.8-1-1.7.1-2.5.4c-.7.2-1.4.7-1.9,1.3s-.8,1.4-.8,2.3,0,.7.2,1,.3.6.4.8.4.4.8.7.7.4.9.5.7.3,1.2.5c.5.2.9.3,1.2.4s.8.2,1.4.4c1.1.3,1.9.5,2.5.7.6.2,1.3.5,2.2.9s1.6.9,2.1,1.3c.5.5.9,1.1,1.3,1.9s.6,1.7.6,2.6-.2,1.9-.5,2.7c-.3.8-.8,1.5-1.3,2.1-.6.6-1.2,1-2,1.4s-1.6.7-2.5.8-1.8.3-2.8.3h0Z"/>
        <path class="cls-1" d="M602.2,129.4h-10.2v7.9h9v3.2h-9v7.9h10.2v3.2h-13.8v-25.4h13.8v3.2h0Z"/>
        <path class="cls-1" d="M628.7,126.2h3.6v25.4h-3.9l-13.3-20.2v20.2h-3.5v-25.4h3.8l13.3,20.1v-20.1h0Z"/>
        <path class="cls-1" d="M657.1,129.4h-10.2v7.9h9v3.2h-9v7.9h10.2v3.2h-13.8v-25.4h13.8v3.2h0Z"/>
        <path class="cls-1" d="M680.2,151.6l-6.6-11.4h-3.6v11.4h-3.6v-25.4h8.6c1.3,0,2.4.2,3.5.6s1.8.9,2.4,1.6,1.1,1.4,1.4,2.3.5,1.8.5,2.8c0,1.8-.5,3.2-1.5,4.4s-2.3,1.9-4.1,2.2l7.2,11.6h-4.2ZM670,129.3v8.2h4.5c1.6,0,2.8-.4,3.6-1.1.8-.7,1.2-1.7,1.2-3s-.4-2.2-1.2-3-2-1.1-3.6-1.1h-4.5Z"/>
        <path class="cls-1" d="M703.1,152c-1.8,0-3.4-.3-5-.9-1.5-.6-2.9-1.4-4-2.5-1.1-1.1-2-2.5-2.7-4.1s-1-3.4-1-5.4.6-5,1.7-7,2.6-3.5,4.5-4.6,4.1-1.6,6.5-1.6,4.5.5,6.4,1.5c1.9,1,3.4,2.5,4.5,4.4l-3.2,1.7c-.8-1.4-1.8-2.5-3.2-3.3-1.3-.7-2.8-1.1-4.5-1.1s-2.5.2-3.6.7c-1.1.4-2.1,1.1-2.9,1.9s-1.5,1.8-1.9,3.1c-.5,1.2-.7,2.6-.7,4.2,0,3,.9,5.4,2.6,7.2s3.9,2.6,6.7,2.6,4.1-.6,5.6-1.9c1.5-1.2,2.4-3,2.7-5.4h-8.3v-3h11.8v13.1h-2.9v-4.6c-.8,1.6-2,2.8-3.6,3.6s-3.4,1.3-5.5,1.3h0Z"/>
        <path class="cls-1" d="M740.8,126.2l-8.4,13.3v12.1h-3.6v-12.1l-8.4-13.3h4.1l6.1,10.1,6.1-10.1h4Z"/>
        <path class="cls-1" d="M774.4,126.2v3.2h-6.4v22.2h-3.5v-22.2h-6.5v-3.2h16.4,0Z"/>
        <path class="cls-1" d="M796.2,151.6l-6.6-11.4h-3.6v11.4h-3.6v-25.4h8.6c1.3,0,2.4.2,3.5.6s1.8.9,2.4,1.6,1.1,1.4,1.4,2.3.5,1.8.5,2.8c0,1.8-.5,3.2-1.5,4.4s-2.3,1.9-4.1,2.2l7.2,11.6h-4.2ZM786.1,129.3v8.2h4.5c1.6,0,2.8-.4,3.6-1.1.8-.7,1.2-1.7,1.2-3s-.4-2.2-1.2-3-2-1.1-3.6-1.1h-4.5Z"/>
        <path class="cls-1" d="M825.5,151.6l-2.1-5.9h-11.4l-2.1,5.9h-3.7l9.4-25.4h4.3l9.4,25.4h-3.7,0ZM813.2,142.6h9.1l-4.6-12.8-4.6,12.8h0Z"/>
        <path class="cls-1" d="M854.5,126.2h3.6v25.4h-3.9l-13.3-20.2v20.2h-3.5v-25.4h3.8l13.3,20.1v-20.1h0Z"/>
        <path class="cls-1" d="M877.1,152c-2.7,0-4.9-.6-6.7-1.8-1.8-1.2-2.9-2.9-3.3-5l3.7-.9c.3,1.5,1,2.6,2.2,3.4,1.2.8,2.6,1.2,4.3,1.2s1.4,0,2-.2,1.2-.4,1.7-.7c.5-.3.9-.8,1.2-1.3.3-.6.4-1.2.4-1.9,0-.6-.2-1.1-.4-1.6s-.6-.8-.8-1.1-.8-.6-1.6-.9-1.3-.5-1.7-.6c-.3-.1-1-.3-2-.6-.1,0-.2,0-.2,0-.7-.2-1.2-.4-1.7-.5-.4-.1-1-.3-1.6-.6s-1.1-.5-1.5-.7-.8-.5-1.2-.9-.8-.7-1-1.1c-.2-.4-.5-.9-.6-1.4s-.2-1.2-.2-1.8c0-.9.2-1.8.4-2.6s.7-1.4,1.2-2c.5-.6,1.1-1,1.9-1.4.7-.4,1.5-.7,2.3-.9.8-.2,1.7-.3,2.7-.3s2.2.1,3.2.4,1.9.6,2.8,1.1c.8.5,1.6,1.2,2.2,2,.6.8,1,1.8,1.2,2.8l-3.5.9c-.3-1.4-1-2.4-2-3.1s-2.3-1-3.8-1-1.7.1-2.5.4c-.7.2-1.4.7-1.9,1.3s-.8,1.4-.8,2.3,0,.7.2,1,.3.6.4.8.4.4.8.7.7.4.9.5.7.3,1.2.5c.5.2.9.3,1.2.4s.8.2,1.4.4c1.1.3,1.9.5,2.5.7.6.2,1.3.5,2.2.9s1.6.9,2.1,1.3c.5.5.9,1.1,1.3,1.9s.6,1.7.6,2.6-.2,1.9-.5,2.7c-.3.8-.8,1.5-1.3,2.1-.6.6-1.2,1-2,1.4s-1.6.7-2.5.8-1.8.3-2.8.3h0Z"/>
        <path class="cls-1" d="M909.3,129.4h-10.3v7.9h9v3.2h-9v11.1h-3.7v-25.4h14v3.2h0Z"/>
        <path class="cls-1" d="M931.7,129.4h-10.2v7.9h9v3.2h-9v7.9h10.2v3.2h-13.8v-25.4h13.8v3.2h0Z"/>
        <path class="cls-1" d="M954.8,151.6l-6.6-11.4h-3.6v11.4h-3.6v-25.4h8.6c1.3,0,2.4.2,3.5.6s1.8.9,2.4,1.6,1.1,1.4,1.4,2.3.5,1.8.5,2.8c0,1.8-.5,3.2-1.5,4.4s-2.3,1.9-4.1,2.2l7.2,11.6h-4.2ZM944.7,129.3v8.2h4.5c1.6,0,2.8-.4,3.6-1.1.8-.7,1.2-1.7,1.2-3s-.4-2.2-1.2-3-2-1.1-3.6-1.1h-4.5Z"/>
        <path class="cls-1" d="M343.1,138.4v2.8h-10.7v-2.8h10.7Z"/>
      </g>
      <path class="cls-1" d="M190.4,188.8l-29.2-32.5c16.2-16.9,24.3-38.4,24.3-64.8s-4-34.5-12.1-48.5c-8.1-14-19.2-24.7-33.2-32C126.2,3.7,110.4,0,92.8,0s-33.5,3.7-47.5,11c-14,7.3-25,18-33.1,32C4,57,0,73.2,0,91.5s4,34.5,12.1,48.6c8.1,14,19.2,24.7,33.2,32.1,14,7.4,30.5,11.1,47.5,11.1s32.3-3.5,45.9-10.5l23.8,26,28-10.1h0ZM40.7,58.5c.3-.4.5-.9.8-1.3.2,4.2.8,8.1,1.8,11.8,1.3,4.6,2.9,8.5,4.8,11.7,1.9,3.1,4.4,6,7.5,8.6,3.1,2.6,6,4.7,8.9,6.3,2.9,1.6,6.2,3.1,10,4.7,3.1,1.4,7.2,2.9,12.3,4.8,5.1,1.8,9,3.3,11.7,4.5,2.7,1.2,5.6,2.7,8.7,4.6,3.1,1.9,5.3,4.2,6.7,6.8,1.4,2.6,2.1,5.7,2.2,9.3,0,6.3-.5,27.6-33.1,23.9-13.1-1.8-24.2-7.2-33.3-16.2-11.3-11.2-17-26.7-17-46.4s2.7-23.6,8-33.1ZM147.3,120.9c-.4-4.2-1.2-8.2-2.4-11.9-1.8-5.6-4-10.1-6.5-13.7-2.5-3.5-5.9-6.7-10.1-9.6-4.2-2.9-8.1-5.1-11.5-6.7-3.5-1.6-7.7-3.2-12.6-4.9-1.2-.4-3.1-1.1-5.5-1.8-2.5-.8-4.3-1.4-5.5-1.8-1.2-.4-2.8-1-4.9-1.8-2.1-.8-3.7-1.5-4.8-2s-2.3-1.3-3.8-2.3c-1.5-.9-2.6-1.9-3.4-2.8-.8-.9-1.6-1.9-2.4-3.2-.8-1.2-1.4-2.5-1.7-3.9-.3-1.4-.5-2.9-.5-4.6,0-5.9,2-10.4,6-13.4,3.1-2.4,14.2-8.7,30.8-5.1,2.8.6,5.4,1.5,8,2.5,7.3,2.8,13.6,6.8,19,12,5.4,5.2,9.6,11.7,12.7,19.5,3.1,7.8,4.6,16.4,4.6,25.9s-1.8,20.9-5.4,29.4Z"/>
      <g>
        <path class="cls-1" d="M272.5,79.8l-5.9,2.1-6.5-7.1c-3.8,2.2-8.1,3.3-12.8,3.3s-6.5-.6-9.4-1.7c-2.9-1.1-5.4-2.7-7.6-4.8-2.1-2.1-3.8-4.6-5-7.7s-1.8-6.5-1.8-10.2.6-7.1,1.8-10.1,2.9-5.6,5-7.7c2.1-2.1,4.7-3.7,7.6-4.8,2.9-1.1,6.1-1.7,9.4-1.7s6.5.6,9.4,1.7c2.9,1.1,5.4,2.7,7.6,4.8,2.1,2.1,3.8,4.6,5,7.7s1.8,6.5,1.8,10.1c0,7.2-2.2,13-6.5,17.5l7.9,8.6h0ZM230,53.8c0,2.9.4,5.5,1.3,7.8s2.1,4.3,3.7,5.8,3.4,2.7,5.5,3.5c2.1.8,4.3,1.2,6.8,1.2s4.6-.4,6.7-1.2c2.1-.8,3.9-2,5.4-3.5s2.8-3.5,3.6-5.8c.9-2.3,1.3-4.9,1.3-7.8s-.4-5.3-1.3-7.6-2.1-4.2-3.6-5.7c-1.5-1.5-3.4-2.7-5.4-3.5-2.1-.8-4.3-1.2-6.7-1.2s-4.7.4-6.8,1.2c-2.1.8-3.9,2-5.5,3.5s-2.8,3.4-3.7,5.7-1.3,4.8-1.3,7.6h0Z"/>
        <path class="cls-1" d="M319.1,78.2c-3.3,0-6.3-.6-8.9-1.9s-4.7-3.1-6.2-5.7c-1.5-2.5-2.3-5.5-2.3-9v-31.5h6.7v30.6c0,3.8,1,6.6,3,8.5,2,1.9,4.6,2.9,7.8,2.9s5.8-1,7.8-2.9c2-1.9,3-4.8,3-8.5v-30.6h6.7v31.5c0,3.5-.8,6.5-2.4,9-1.6,2.5-3.6,4.4-6.3,5.7s-5.6,1.9-8.9,1.9h0Z"/>
        <path class="cls-1" d="M399.8,77.5l-4-11.1h-21.2l-4,11.1h-6.9l17.5-47.4h8l17.5,47.4h-6.9,0ZM376.7,60.6h17l-8.5-23.9-8.5,23.9h0Z"/>
        <path class="cls-1" d="M467.6,30.1h6.6v47.4h-7.2l-24.8-37.6v37.6h-6.6V30.1h7.1l24.8,37.4V30.1h0Z"/>
        <path class="cls-1" d="M533.8,30.1v6h-12v41.4h-6.6v-41.4h-12v-6s30.6,0,30.6,0Z"/>
        <path class="cls-1" d="M579.1,78.2c-3.3,0-6.3-.6-8.9-1.9s-4.7-3.1-6.2-5.7c-1.5-2.5-2.3-5.5-2.3-9v-31.5h6.7v30.6c0,3.8,1,6.6,3,8.5,2,1.9,4.6,2.9,7.8,2.9s5.8-1,7.8-2.9,3-4.8,3-8.5v-30.6h6.7v31.5c0,3.5-.8,6.5-2.3,9-1.6,2.5-3.7,4.4-6.3,5.7s-5.6,1.9-8.9,1.9h0Z"/>
        <path class="cls-1" d="M680.8,77.5h-6.5l-3.1-38.5-14.6,38.5h-4l-14.5-38.4-3.2,38.4h-6.6l3.7-47.4h9l13.6,35.8,13.7-35.8h9l3.6,47.4h0Z"/>
        <path class="cls-1" d="M765.9,78.2c-5,0-9.2-1.1-12.5-3.4s-5.4-5.4-6.2-9.4l6.8-1.6c.5,2.7,1.9,4.9,4.1,6.4s4.9,2.3,8.1,2.3,2.5-.1,3.7-.4,2.2-.7,3.1-1.3c1-.6,1.7-1.4,2.2-2.4.5-1,.8-2.2.8-3.6,0-1.1-.3-2-.8-2.9s-1-1.5-1.6-2c-.5-.5-1.5-1-2.9-1.6s-2.5-1-3.1-1.2c-.6-.2-1.9-.5-3.8-1.1-.2,0-.3-.1-.4-.1-1.3-.4-2.3-.7-3.2-.9-.8-.2-1.8-.6-3-1-1.1-.4-2.1-.9-2.8-1.3-.7-.4-1.5-1-2.3-1.6-.8-.7-1.4-1.4-1.9-2.1-.5-.8-.8-1.6-1.1-2.7s-.5-2.2-.5-3.4c0-1.7.3-3.3.8-4.8.5-1.5,1.3-2.7,2.3-3.7s2.1-1.9,3.5-2.6c1.3-.7,2.8-1.3,4.4-1.6,1.6-.4,3.2-.5,5-.5s4.2.2,6,.7c1.9.5,3.6,1.1,5.2,2.1s2.9,2.1,4,3.7c1.1,1.5,1.9,3.3,2.3,5.2l-6.5,1.6c-.6-2.5-1.8-4.4-3.8-5.7-2-1.3-4.3-1.9-7.1-1.9s-3.2.2-4.6.7-2.5,1.3-3.5,2.5c-1,1.2-1.4,2.6-1.4,4.3s.1,1.3.3,1.9c.2.6.5,1.1.8,1.5.3.4.8.8,1.4,1.3.6.4,1.2.8,1.7,1s1.2.5,2.2.8c.9.3,1.7.5,2.3.7.6.2,1.4.4,2.5.7,2,.6,3.6,1,4.7,1.3s2.5.9,4.2,1.7c1.7.8,3,1.6,3.9,2.5.9.9,1.7,2,2.4,3.5s1.1,3.1,1.1,4.9-.3,3.6-.9,5.1-1.4,2.8-2.5,3.9-2.3,1.9-3.7,2.7-3,1.2-4.6,1.6-3.4.5-5.2.5h0Z"/>
        <path class="cls-1" d="M831.9,30.1c4.2,0,7.7,1.4,10.3,4.2,2.6,2.8,4,6.3,4,10.5s-1.3,7.7-3.9,10.4c-2.6,2.8-6.1,4.1-10.3,4.1h-11.6v18.2h-6.7V30.1h18.3ZM830.9,53.6c2.7,0,4.8-.8,6.4-2.4s2.3-3.8,2.3-6.5-.8-4.7-2.3-6.4c-1.5-1.6-3.7-2.5-6.4-2.5h-10.6v17.7h10.6Z"/>
        <path class="cls-1" d="M876.3,77.5V30.1h6.7v47.4h-6.7Z"/>
        <path class="cls-1" d="M949.2,30.1h6.6v47.4h-7.2l-24.8-37.6v37.6h-6.6V30.1h7.1l24.8,37.4V30.1Z"/>
      </g>
    </g>
  </g>
</svg>