<?xml version="1.0" encoding="UTF-8"?><svg id="Layer_2" xmlns="http://www.w3.org/2000/svg" viewBox="0 0 242.64 243.17"><defs><style>.cls-1{fill:#fff;stroke-width:0px;}</style></defs><g id="Energy"><path class="cls-1" d="M237.03,143.57l-47.32-78.09V13.53h5.04c3.78,0,6.81-3.03,6.81-6.81s-3.03-6.72-6.81-6.72h-71.2c-3.78,0-6.81,3.03-6.81,6.72s3.03,6.81,6.81,6.81h5.04v51.95l-19.08,31.44c3.45,3.2,6.56,6.72,9.41,10.59l22.19-36.56c.67-1.09,1.01-2.35,1.01-3.53V13.53h34.04v53.88c0,1.18.34,2.44.93,3.53l48.42,79.6c4.62,7.65,4.79,16.81.42,24.54-4.37,7.82-12.36,12.44-21.27,12.44h-72.12l15.13,13.53h56.99c13.87,0,26.22-7.23,33.03-19.25,6.81-12.1,6.56-26.39-.67-38.25Z"/><path class="cls-1" d="M204.67,174.92c9.16,0,14.79-10,10.09-17.82l-30.01-49.43h-51.19l-7.4,12.19v.08c4.29,9.33,6.72,19.67,6.72,30.6,0,8.32-1.43,16.64-4.12,24.38h75.9Z"/><path class="cls-1" d="M108.84,184.52c6.8-9.57,10.63-21.47,10.63-34.01,0-32.95-26.78-59.73-59.73-59.73S0,117.56,0,150.51s27,59.73,59.95,59.73c12.54,0,24.45-4.04,34.01-10.63l35.29,39.11c5.1,5.74,14.03,5.95,19.56.42,5.53-5.53,5.1-14.24-.42-19.56l-39.54-35.08ZM59.95,194.94c-24.45,0-44.43-19.98-44.43-44.43-.21-24.45,19.77-44.43,44.43-44.43s44.43,19.98,44.43,44.43-19.98,44.43-44.43,44.43Z"/><path class="cls-1" d="M59.95,118.62c-4.25,0-7.65,3.4-7.65,7.65s3.4,7.65,7.65,7.65c9.14,0,16.58,7.44,16.58,16.58,0,4.25,3.4,7.65,7.65,7.65s7.65-3.4,7.65-7.65c-.21-17.64-14.46-31.89-31.89-31.89Z"/></g></svg>