<?xml version="1.0" encoding="UTF-8"?><svg id="Layer_2" xmlns="http://www.w3.org/2000/svg" viewBox="0 0 231.41 231.41"><defs><style>.cls-1{fill:#fff;stroke-width:0px;}</style></defs><g id="Energy"><path class="cls-1" d="M223.58,106.08c4.32,0,7.82-3.5,7.82-7.82s-3.5-7.82-7.82-7.82h-26.47v-19.24h26.47c4.32,0,7.82-3.5,7.82-7.82s-3.5-7.82-7.82-7.82h-26.47v-.4c0-11.47-9.33-20.81-20.82-20.81h-.44V7.82c0-4.32-3.5-7.82-7.82-7.82s-7.82,3.5-7.82,7.82v26.51h-19.24V7.82c0-4.32-3.51-7.82-7.82-7.82s-7.82,3.5-7.82,7.82v26.51h-19.24V7.82c0-4.32-3.51-7.82-7.82-7.82s-7.82,3.5-7.82,7.82v26.51h-19.24V7.82c0-4.32-3.51-7.82-7.82-7.82s-7.82,3.5-7.82,7.82v26.51h-.4c-11.48,0-20.82,9.33-20.82,20.81v.4H7.82c-4.32,0-7.82,3.5-7.82,7.82s3.5,7.82,7.82,7.82h26.5v19.24H7.82c-4.32,0-7.82,3.5-7.82,7.82s3.5,7.82,7.82,7.82h26.5v19.24H7.82c-4.32,0-7.82,3.5-7.82,7.82s3.5,7.82,7.82,7.82h26.5v19.24H7.82c-4.32,0-7.82,3.5-7.82,7.82s3.5,7.82,7.82,7.82h26.5v.45c0,11.47,9.33,20.81,20.82,20.81h.4v26.47c0,4.32,3.5,7.82,7.82,7.82s7.82-3.5,7.82-7.82v-26.47h19.24v26.47c0,4.32,3.5,7.82,7.82,7.82s7.82-3.5,7.82-7.82v-26.47h19.24v26.47c0,4.32,3.51,7.82,7.82,7.82s7.82-3.5,7.82-7.82v-26.47h19.24v26.47c0,4.32,3.5,7.82,7.82,7.82s7.82-3.5,7.82-7.82v-26.47h.44c11.48,0,20.82-9.34,20.82-20.81v-.45h26.47c4.32,0,7.82-3.5,7.82-7.82s-3.5-7.82-7.82-7.82h-26.47v-19.24h26.47c4.32,0,7.82-3.5,7.82-7.82s-3.5-7.82-7.82-7.82h-26.47v-19.24h26.47ZM176.29,166.09c0,5.64-4.57,10.22-10.21,10.22h-100.73c-5.64,0-10.21-4.57-10.21-10.22v-100.73c0-5.64,4.57-10.22,10.21-10.22h100.73c5.64,0,10.21,4.57,10.21,10.22v100.73Z"/><path class="cls-1" d="M156.38,75.02c-7.9-7.88-23.71-4.94-40.68,6.17-16.98-11.11-32.78-14.04-40.68-6.17-5.49,5.49-5.93,14.98-1.24,26.72,1.81,4.53,4.44,9.24,7.51,13.96-3.07,4.72-5.7,9.43-7.51,13.96-4.69,11.75-4.25,21.24,1.24,26.72,2.97,2.96,7.12,4.46,12.16,4.46,4.27,0,9.18-1.08,14.57-3.22,4.53-1.81,9.24-4.44,13.96-7.51,4.72,3.07,9.42,5.7,13.96,7.51,5.39,2.15,10.3,3.22,14.57,3.22,5.04,0,9.18-1.5,12.16-4.46,7.9-7.9,4.96-23.71-6.16-40.68,11.12-16.97,14.05-32.78,6.16-40.68ZM144.2,78.03c3,0,5.37.76,6.89,2.28,4.34,4.34,2.34,15.59-5.64,28.79-3.19-4.14-6.68-8.3-10.76-12.39h0c-4.1-4.1-8.27-7.59-12.42-10.78,8.59-5.2,16.37-7.9,21.94-7.9ZM141.07,115.7c-3.27,4.5-7.09,9.11-11.67,13.69-4.42,4.43-9.05,8.31-13.69,11.68-4.64-3.38-9.27-7.26-13.69-11.68-4.42-4.42-8.3-9.05-11.68-13.69,3.38-4.65,7.26-9.27,11.68-13.69,4.59-4.58,9.2-8.44,13.69-11.71,4.5,3.27,9.11,7.13,13.69,11.71,4.59,4.58,8.4,9.19,11.67,13.69ZM80.73,98.97c-3.46-8.67-3.61-15.47-.42-18.66,1.52-1.53,3.89-2.28,6.89-2.28,5.57,0,13.35,2.7,21.94,7.9-4.16,3.19-8.32,6.69-12.42,10.78-4,4-7.51,8.18-10.74,12.4-2.08-3.44-3.94-6.86-5.25-10.15ZM98.97,150.68c-8.67,3.44-15.47,3.59-18.66.41-3.19-3.19-3.04-9.99.42-18.66,1.31-3.29,3.17-6.71,5.25-10.15,3.23,4.22,6.75,8.41,10.74,12.4,4,3.99,8.18,7.51,12.4,10.74-3.44,2.08-6.86,3.94-10.15,5.25ZM151.09,151.09c-3.19,3.19-9.99,3.04-18.66-.41-3.29-1.31-6.71-3.17-10.14-5.25,4.22-3.23,8.4-6.75,12.4-10.74,4.09-4.09,7.57-8.24,10.76-12.39,7.98,13.2,9.99,24.45,5.64,28.79Z"/><path class="cls-1" d="M107.69,107.69c-4.43,4.42-4.43,11.6,0,16.02,4.43,4.42,11.6,4.42,16.02,0,4.42-4.43,4.42-11.6,0-16.02-4.43-4.43-11.6-4.43-16.02,0Z"/></g></svg>