<?xml version="1.0" encoding="UTF-8"?><svg id="Layer_2" xmlns="http://www.w3.org/2000/svg" viewBox="0 0 300.29 228.83"><defs><style>.cls-1{fill:#fff;stroke-width:0px;}</style></defs><g id="Energy"><path class="cls-1" d="M236.73,102.12l-10.08-95.07c-.38-4.02-3.79-7.05-7.88-7.05h-30.17c-4.09,0-7.51,3.03-7.88,7.05l-6.97,65.27-41.24-37c-2.2-1.97-5.69-.76-6.14,2.12l-5.54,33.05-39.19-35.17c-2.2-1.97-5.76-.76-6.22,2.12l-5.53,33.05L30.67,35.33c-2.2-1.97-5.69-.76-6.22,2.12L.12,183.24c-.83,4.85,2.88,9.25,7.81,9.25h157.01v-59.44c0-17.06,13.87-30.93,30.93-30.93h40.86ZM77.53,162.34c0,2.94-2.38,5.32-5.33,5.32h-17.41c-2.94,0-5.33-2.38-5.33-5.32v-11.72c0-2.94,2.38-5.33,5.33-5.33h17.41c2.94,0,5.33,2.38,5.33,5.33v11.72ZM77.53,119.77c0,2.94-2.38,5.32-5.33,5.32h-17.41c-2.94,0-5.33-2.38-5.33-5.32v-11.72c0-2.94,2.38-5.33,5.33-5.33h17.41c2.94,0,5.33,2.38,5.33,5.33v11.72ZM133.88,162.34c0,2.94-2.38,5.32-5.33,5.32h-17.41c-2.94,0-5.32-2.38-5.32-5.32v-11.72c0-2.94,2.38-5.33,5.32-5.33h17.41c2.94,0,5.33,2.38,5.33,5.33v11.72ZM133.88,119.77c0,2.94-2.38,5.32-5.33,5.32h-17.41c-2.94,0-5.32-2.38-5.32-5.32v-11.72c0-2.94,2.38-5.33,5.32-5.33h17.41c2.94,0,5.33,2.38,5.33,5.33v11.72Z"/><path class="cls-1" d="M288.31,121.1h-31.39v20.83c0,3.41-3.76,5.49-6.64,3.67l-6.26-3.93c-1.17-.73-2.66-.73-3.83,0l-6.26,3.93c-2.89,1.81-6.64-.26-6.64-3.67v-20.83h-31.39c-6.62,0-11.98,5.36-11.98,11.98v83.77c0,6.62,5.36,11.98,11.98,11.98h92.4c6.62,0,11.98-5.36,11.98-11.98v-83.77c0-6.62-5.36-11.98-11.98-11.98Z"/></g></svg>