<?xml version="1.0" encoding="UTF-8"?><svg id="Layer_2" xmlns="http://www.w3.org/2000/svg" viewBox="0 0 230.06 239.31"><defs><style>.cls-1{fill:#fff;stroke-width:0px;}</style></defs><g id="Energy"><path class="cls-1" d="M45.93,211.68C16.98,190.06,0,155.71,0,119.81,0,56.5,51.72,4.78,115.03,4.78h.39l-14.28,17.76C53.27,29.48,17.37,71.17,17.37,119.81c0,28.18,12.35,55.2,33.58,74.11-3.09,10.04-4.25,15.05-5.02,17.76Z"/><path class="cls-1" d="M114.64,234.84l14.28-17.76c47.86-6.95,84.15-48.64,84.15-97.27,0-28.56-12.35-55.2-33.58-74.11.77-3.47,3.47-13.12,4.63-17.76,28.95,21.62,45.93,55.97,45.93,91.87,0,63.3-51.72,115.03-115.42,115.03q.39,0,0,0Z"/><path class="cls-1" d="M177.18,97.04h-36.67l21.62-85.69c2.32-9.26-9.65-15.44-15.83-8.11L45.93,127.53c-4.63,5.79-.39,14.67,6.95,14.67h36.67l-21.62,85.69c-2.32,9.65,9.65,15.44,15.83,8.11l100.36-124.29c4.63-5.79.39-14.67-6.95-14.67Z"/></g></svg>