<?xml version="1.0" encoding="UTF-8"?><svg id="Layer_2" xmlns="http://www.w3.org/2000/svg" viewBox="0 0 343.96 249.18"><defs><style>.cls-1{fill:#fff;stroke-width:0px;}</style></defs><g id="Layer_1-2"><path class="cls-1" d="M124.59,233.46c-59.98,0-108.87-48.77-108.87-108.87S64.61,15.72,124.59,15.72c29.01,0,55.48,11.44,74.89,29.93h21.5C198.1,17.8,163.43,0,124.59,0,55.94,0,0,55.94,0,124.59s55.94,124.59,124.59,124.59c38.72,0,73.39-17.68,96.28-45.54h-21.5c-19.42,18.49-45.77,29.82-74.78,29.82Z"/><path class="cls-1" d="M326.16,133.95c-6.93,0-13.06,3.93-15.83,9.94h-31.09l-11.79-19.42,11.44-18.49h31.44c3.12,6.13,9.13,9.94,15.83,9.94,9.82,0,17.8-7.97,17.8-17.8s-7.97-17.8-17.8-17.8c-6.93,0-13.06,3.93-15.83,9.94h-35.94c-2.66,0-5.32,1.5-6.59,3.7l-13.99,22.65h-18.95c.23,2.66.35,5.32.35,7.97s-.12,5.2-.23,7.74h18.49l14.33,23.69c1.62,2.31,4.04,3.58,6.93,3.58h35.6c3.12,6.01,9.13,9.94,15.83,9.94,9.82,0,17.8-7.97,17.8-17.8s-7.97-17.8-17.8-17.8Z"/><path class="cls-1" d="M225.26,78.71h32.71c2.66,0,5.32-1.5,6.59-3.7l14.33-22.65h12.83c3.58,7.28,11.44,11.21,19.65,9.59,6.59-1.39,12.25-7.05,13.64-13.64.23-1.27.46-2.54.46-3.81,0-9.83-8.09-17.8-17.91-17.8-6.7,0-12.71,3.81-15.83,9.94h-17.34c-2.66,0-5.32,1.5-6.59,3.7l-13.99,22.65h-37.45c3.35,4.97,6.36,10.17,8.9,15.72Z"/><path class="cls-1" d="M311.02,187.35c-8.21-1.62-15.95,2.31-19.53,9.59h-12.94l-14.33-22.77c-1.5-2.31-3.93-3.58-6.47-3.58h-32.48c-2.54,5.55-5.55,10.75-8.9,15.72h37.1l13.98,22.65c1.62,2.31,3.93,3.7,6.7,3.7h17.34c3.01,6.01,9.13,9.94,15.83,9.94,9.82,0,17.8-7.97,17.8-17.8,0-1.27-.11-2.54-.46-3.81-1.39-6.7-6.93-12.25-13.64-13.64Z"/><path class="cls-1" d="M124.61,31.4c-51.49,0-93.24,41.74-93.24,93.24s41.74,93.23,93.24,93.23,93.23-41.74,93.23-93.23S176.11,31.4,124.61,31.4ZM155.18,164.46c-5.07,6.1-12.5,10.18-20.88,10.87v12.26c0,.67-.33,1.23-.71,1.72-.16.2-.32.34-.52.49-.48.36-1.01.69-1.65.69h-13.62s0,0-.01,0h-.02c-1.5,0-2.89-1.27-2.89-2.89v-12.25c-4.84-.43-9.31-2.05-13.24-4.45-7.79-4.74-13.33-12.81-14.37-22.31,0-.02,0-.03-.01-.05-.11-.8.19-1.53.66-2.1.52-.69,1.27-1.17,2.22-1.17h13.78c.64,0,1.23.23,1.71.59.16.12.22.32.35.46.3.34.62.68.72,1.16.75,3.64,3.35,6.59,6.74,7.92.08.03.13.09.21.12.24.09.52.06.76.13.97.28,1.96.52,3.02.52h13.75c1.06,0,2.07-.27,3.07-.54.34-.09.72-.07,1.05-.19.32-.11.57-.35.87-.49,3.45-1.59,6.12-4.64,6.52-8.55.16-1.6-.04-3.13-.51-4.55-.36-1.06-1-1.95-1.64-2.84-1.98-2.76-5.06-4.66-8.7-4.66h-13.26c-11.09,0-21.28-5.75-26.91-14.63-2.25-3.53-3.86-7.5-4.42-11.87-2.08-17.57,10.86-32.48,27.62-33.86v-12.25c0-.57.33-1.01.62-1.45.51-.83,1.26-1.47,2.3-1.47h13.62c1.59,0,2.88,1.3,2.88,2.89v12.29c1.75.15,3.46.47,5.11.9,12,3.1,21.17,13.28,22.55,25.86.09.85-.19,1.63-.68,2.23-.08.1-.21.12-.3.21-.51.48-1.12.87-1.89.87h-13.78c-.81,0-1.48-.41-2.01-.97-.36-.36-.7-.75-.79-1.25-1.04-4.97-5.43-8.67-10.63-8.67h-14.45c-6.47,0-11.56,5.55-10.86,12.02.29,2.82,1.73,5.27,3.8,7.01,2.09,1.73,4.81,2.75,7.66,2.75h12.62c8.95,0,17.28,3.79,23.15,9.88,4.32,4.46,7.35,10.13,8.13,16.64.18,1.48.1,2.91.07,4.35-.14,7.09-2.58,13.58-6.81,18.65Z"/></g></svg>