<?xml version="1.0" encoding="UTF-8"?><svg id="Layer_2" xmlns="http://www.w3.org/2000/svg" viewBox="0 0 230.73 229.76"><defs><style>.cls-1{fill:#fff;stroke-width:0px;}</style></defs><g id="Energy"><path class="cls-1" d="M90.18,153.82l-36.58-37.44c-1.65-1.69-3.88-2.64-6.3-2.67-2.38-.02-4.62.91-6.31,2.59-2.84,2.85-3.41,7.27-1.37,10.75l1.09,1.86c5.74,9.8,12.31,19.09,19.64,27.77l6.78,8.03c1.02,1.21,1.51,2.75,1.38,4.33-.13,1.57-.87,3-2.08,4.03-1.21,1.02-2.75,1.51-4.33,1.38-1.57-.13-3.01-.88-4.02-2.09l-6.44-7.61c-8.07-9.53-15.28-19.75-21.56-30.53l-.68-1.17c-4.67-8.02-3.58-18.25,2.93-24.86.6-.6,1.21-1.18,1.84-1.69l-14.34-30.81c-1.66-3.55-5.33-5.94-9.23-6-2.96-.06-5.72,1.09-7.76,3.25-2.04,2.15-3.04,4.97-2.81,7.92l6.2,81.44c.58,7.59,4.05,14.66,9.68,19.76l29.46,26.66c1.8,1.63,2.9,3.89,3.07,6.31l.72,10.13c.18,2.59,2.34,4.6,4.93,4.6h42.74c2.89,0,5.16-2.46,4.93-5.34l-4.37-55.42c-.65-5.69-3.21-11.1-7.22-15.19Z"/><path class="cls-1" d="M227.89,72.94c-2.04-2.16-4.8-3.31-7.76-3.25-3.9.06-7.58,2.45-9.23,6l-14.34,30.81c.63.51,1.24,1.09,1.84,1.69,6.51,6.6,7.6,16.84,2.93,24.86l-.68,1.17c-6.28,10.79-13.5,21-21.56,30.53l-6.44,7.61c-1.02,1.21-2.45,1.96-4.02,2.09-1.58.13-3.12-.36-4.33-1.38-1.21-1.04-1.95-2.46-2.08-4.03-.13-1.58.35-3.12,1.38-4.33l6.78-8.03c7.33-8.68,13.9-17.97,19.64-27.77l1.09-1.86c2.04-3.49,1.48-7.9-1.37-10.75-1.69-1.69-3.93-2.61-6.31-2.59-2.42.04-4.65.98-6.3,2.67l-36.58,37.44c-4.01,4.09-6.57,9.5-7.22,15.19l-4.37,55.42c-.23,2.88,2.04,5.34,4.93,5.34h42.75c2.6,0,4.75-2.01,4.93-4.6l.72-10.13c.17-2.42,1.27-4.68,3.07-6.31l29.46-26.66c5.64-5.1,9.11-12.18,9.68-19.76l6.2-81.44c.23-2.95-.77-5.77-2.81-7.92Z"/><path class="cls-1" d="M78.48,64.39l13.58-26.78c1.02-2.01,3.03-3.56,5.36-3.26,2.26.02,4.32,1.33,5.3,3.36l22.25,46.08,12.14-16.92c1.12-1.56,2.92-2.48,4.83-2.48h50.33c11.15-19.18,6.3-45.12-14.77-58.25C161.72-3.69,137.46.03,124.33,13.18l-9.25,9.24-9.87-9.87C86.08-6.55,53.41-3.86,38.13,20.66c-7.81,12.53-6.96,30.33.25,43.73h40.1Z"/><path class="cls-1" d="M144.99,76.29l-16.2,22.58c-1.12,1.57-2.93,2.48-4.83,2.48-.17,0-.34,0-.51-.02-2.09-.18-3.93-1.45-4.84-3.34l-21.37-44.27-9.79,19.32c-1.01,2-3.06,3.26-5.31,3.26h-34.52l60.35,60.36c3.93,3.93,10.29,3.93,14.22,0l60.36-60.36h-37.55Z"/></g></svg>