<svg xmlns="http://www.w3.org/2000/svg" width="11222.535" height="2124.873"><path d="M105.854 1729.136c-27.77-7.939-54.787-24.31-72.67-44.039-19.22-21.2-24.97-32.783-30.726-61.89-8.033-40.622 3.96-84.5 31.047-113.6 17.013-18.274 48.618-37.181 72.125-43.147 12.387-3.144 24.521-7.55 26.965-9.792s13.79-35.348 25.212-73.568c68.221-228.278 131.263-424.017 177.9-552.35C495.61 390.685 670.718 132.473 871.962 39.987c61.034-28.05 95.736-36.274 161.523-38.282L1089.32 0l-43.16 20.712c-133.283 63.961-251.508 173.7-351.076 325.876-64.941 99.26-131.425 243.668-172.042 373.694-5.817 18.619-67.278 201.095-136.585 405.51l-126.003 371.656 8.758 9.647c4.817 5.306 14.532 20.07 21.589 32.81 11.875 21.436 12.83 25.82 12.805 58.799-.038 29.439-1.596 38.684-9.05 53.169-33.621 65.328-114.552 98.467-188.706 77.269zm80.32-83.234c41.381-24.916 38.28-79.648-5.59-98.623-21.363-9.24-35.502-9.317-56.158-.295-22.697 9.902-35.083 27.46-35.083 49.73 0 33.86 25.62 57.23 62.738 57.23 14.93 0 24.499-2.257 34.091-8.03zm1676.775 475.344c3.293-1.961 23.407-11.787 44.703-21.833 78.657-37.107 169.562-107.502 237.798-184.158 120.764-135.648 209.844-301.13 280.385-520.868l145.533-431.87 125.518-369.506-9.948-14.08c-17.608-24.922-23.512-47.308-21.558-81.734 1.371-24.138 4.15-35.565 12.409-50.978 14.416-26.912 42.992-51.968 74.535-65.35 23.597-10.013 29.501-11 65.805-11 34.758 0 42.763 1.208 62.296 9.391 66.377 27.809 98.517 85.898 85.246 154.068-4.046 20.793-9.054 32.878-19.369 46.76-25.05 33.71-65.387 56.956-106.359 61.29-11.029 1.166-20.882 3.322-21.893 4.785s-21.744 68.185-46.067 148.265c-82.666 272.167-128.795 412.002-182.636 553.632-157.934 415.487-323.932 650.414-522.483 739.447-40.938 18.358-68.39 26.166-113.152 32.182-45.586 6.126-99.995 7.053-90.758 1.544zm991.35-1569.52c25.95-15.193 34.265-53.604 16.655-76.952-26.018-34.497-85.387-34.492-107.826 0-34.415 52.91 33.835 110.51 91.17 76.942z" fill="#63b535"/><path d="M1774.632 2052.189c-112.698-35.056-216.573-147.197-309.212-333.826-69.194-139.402-130.702-309.751-209.233-579.523-72.699-249.727-92.73-310.318-114.722-347-22.146-36.946-36.43-28.835-54.452 30.92-4.33 14.353-58.322 223.334-119.982 464.408L848.444 1729.94c-4.53 3.114-24.736 4.454-67.207 4.454-64.652 0-73.346-1.162-73.346-9.8 0-9.318 108.294-447.738 112.23-454.353 2.04-3.43 6.787-6.238 10.548-6.24s17.911-4.683 31.445-10.403c119.775-50.63 108.141-207.03-18.045-242.589-32.077-9.04-56.82-9.04-88.896 0-85.192 24.011-125.641 107.601-87.39 180.628 6.478 12.37 19.784 29.338 29.881 38.108 10.012 8.694 18.204 17.654 18.204 19.91 0 6.755-119.572 457.348-123.67 466.035-3.75 7.951-4.466 8.017-86.623 7.963-45.563-.038-85.495-1.553-88.738-3.384-4.975-2.812 19.87-83.958 159.006-519.332l180.828-555.201c67.76-166.83 167.519-271.41 273.27-286.476 49.131-7.002 98.963 7.01 137.58 38.688 50.397 41.336 60.885 68.45 246.797 637.998 144.187 441.713 159.803 486.87 199.698 577.295 106.2 240.707 230.98 323.347 384.054 254.393 106.399-47.933 227.766-180.416 344.047-375.553 13.432-22.54 27.34-44.189 30.912-48.109 6.255-6.868 6.412-6.712 4.338 4.319-5.132 27.315-76.85 175.193-125.804 259.381-71.376 122.765-136.073 205.662-209.357 268.27-91.014 77.743-180.679 103.292-267.597 76.252zM768.391 1192.211c-66.579-29.446-42.969-120.637 31.235-120.637 74.384 0 97.877 91.763 30.91 120.726-22.185 9.596-40.307 9.57-62.144-.087zm1088.267 545.793c-49.287-15.014-89.696-51.087-112.664-100.574-25.082-54.038-69.25-183.479-212.187-621.84L1363.43 523.82c-47.57-114.768-96.218-194.18-149.857-244.637-43.407-40.831-77.294-58.296-127.5-65.713-133.044-19.66-300.923 123.398-462.484 394.095-43.683 73.194-52.292 74.257-20.648 2.55 104.712-237.287 232.427-423.55 347.038-506.135 74.877-53.953 147.265-73.886 215.838-59.438 109.96 23.165 213.794 122.843 308.066 295.764 86.49 158.634 147.702 328.013 265.267 734.091 50.114 173.089 74.883 238.179 97.617 256.542l8.785 7.094 9.522-9.892c5.238-5.44 12.421-18.802 15.964-29.692s58.296-221.92 121.673-468.963l119.746-454.03c6.71-7.223 138.441-7.072 141.545.17 2.12 4.933-110.935 474.475-117.65 488.63-2.19 4.619-11.498 9.5-25.78 13.524-40.422 11.385-78.76 45.462-91.832 81.627-8.884 24.577-8.362 65.853 1.11 88.133 45.906 107.95 210.952 114.557 270.365 10.825 10.102-17.638 11.225-23.172 11.225-55.31 0-33.168-.933-37.403-13.109-59.502-7.978-14.48-20.074-29.27-30.908-37.792-9.79-7.7-17.8-17.044-17.8-20.767 0-14.727 131.661-501.559 136.46-504.554 6.383-3.99 167.306.038 172.104 4.303 3.73 3.325-299.902 960.031-333.105 1049.577-24.01 64.754-65.628 143.154-99.332 187.12-76.57 99.89-172.367 142.999-259.098 116.572zm268.24-680.074c-42.55-18.82-51.105-72.714-16.17-101.86 11.961-9.979 35.715-18.901 50.05-18.8 32.773.211 64.808 27.026 68.019 56.896 2.501 23.275-.71 33.017-16.04 48.616-22.996 23.403-54.591 28.976-85.859 15.149zm1048.07 1024.673c-11.884-11.882-11.884-1127.001 0-1138.879 10.658-10.657 825.512-11.792 881.225-1.217 57.235 10.854 118.536 43.15 163.733 86.262 52.97 50.524 80.68 105.712 89.321 177.896 3.544 29.604 5.548 236.44 4.482 462.285-1.666 354.425-3.294 409.562-12.185 415.18-5.64 3.564-62.943 6.527-127.338 6.584-97.112 0-118.573-1.687-125.81-10.41-6.94-8.36-8.163-98.974-5.965-442.631l2.762-432.121h-615.24l2.773 434.984 2.77 434.983-14.285 7.646c-20.32 10.876-235.286 10.388-246.245-.556zm1529.898-1.325c-88.597-19.73-173.925-88.767-213.817-172.991l-22.023-46.496V1170.65l25.652-51.905c27.754-56.158 85.587-117.007 135.319-142.379 62.703-31.988 86.898-34.013 406.422-34.013 327.637 0 346.564 1.794 415.18 39.136 42.578 23.174 100.556 81.496 124.202 124.943 34.483 63.355 38.002 100.942 38.132 407.19.214 298.328-2.952 336.696-31.92 398.049-21.807 46.175-79.054 107.863-126.695 136.525-65.132 39.184-97.88 42.435-422.337 41.929-202.685-.32-301.895-2.985-328.128-8.827zm642.585-564.696v-307.62h-622.077v615.24h622.077zm632.245 555.083c-82.254-28.442-152.529-91.527-189.943-170.509l-21.886-46.2V1170.65l25.763-52.129c27.72-56.09 67.923-102.41 114.28-131.674 65.838-41.563 57.302-40.638 410.245-44.428l324.71-3.484 3.54-447.759 5.127-449.467c.876-.94 58.166-1.709 127.32-1.709 108.35 0 126.31 1.495 129.885 10.814 5.426 14.133 5.426 2008.205 0 2022.347-3.726 9.709-49.57 10.79-449.468 10.59-404.39-.215-448.463-1.304-479.588-12.075zm663.178-558.501v-307.62h-615.24l-1.774 300.784 1.517 309.393c2.604 6.791 68.18 8.24 309.393 6.836l306.104-1.773zm651.087 556.58c-68.954-16.333-156.844-84.454-191.782-148.648-37.158-68.273-38.912-87.142-38.822-417.915 0-236.056 2.187-312.384 9.453-339.686 31.054-116.635 132.904-209.329 250.24-227.745 60.774-9.537 857.641-9.537 875.457 0 12.737 6.816 13.224 17.192 13.224 282.327 0 204.969-2.094 277.35-8.203 283.459-6.144 6.144-94.997 8.4-353.764 8.983l-434.428 5.127-88.868 4.347v348.637l710.945 6.836v198.244l-358.89 1.046c-197.39.577-370.448-1.687-384.547-5.024zm692.167-850.527v-85.45h-649.42v170.9h649.42z" fill="#1288d4"/><path d="M8348.663 2086.817c-2.628-2.628-4.777-58.311-4.777-123.741 0-87.608 2.268-120.432 8.608-124.536 4.734-3.064 205.396-7.121 445.915-9.015l437.307-3.443V1640.14l-436.661-1.765c-308.59-1.248-439.373-4.024-445.916-9.45-7.351-6.103-9.251-48.325-9.251-205.609 0-108.862 3.142-214.625 6.983-235.03 16.913-89.847 83.405-174.7 170.711-217.858l52.281-25.842h923.552v254.808l-888.386 6.887-3.775 230.705h436.984c388.064 0 438.187 1.205 447.806 10.821 9.257 9.256 10.823 35.497 10.823 181.233 0 93.79-3.385 188.784-7.53 211.273-17.49 94.934-80.876 177.488-170.16 221.624l-52.28 25.842-458.721 1.916c-252.29 1.054-460.872-.237-463.498-2.87zm1520.029-8.154c-80.076-27.68-144.264-85.572-183.725-165.701l-22.279-45.237-2.044-330.175c-1.937-315.713-1.42-332.199 11.995-376.381 24.793-81.623 91.49-154.827 177.022-194.296 32.907-15.185 38.27-15.44 366.866-17.445 320.363-1.958 335.299-1.463 380.276 12.183 89.998 27.336 169.785 107.196 198.724 198.901 12.984 41.15 13.81 62.622 13.81 359.1 0 297.829-.775 317.865-14.033 360.778-18.362 59.447-66.132 122.177-122.072 160.293-74.517 50.774-72.618 50.559-441.911 50.305-294.365-.215-331.144-1.442-362.63-12.336zm678.943-559.03v-309.902h-626.69v619.805h626.69zm423.274 562.99c-1.808-4.735-2.479-465.715-1.507-1024.4l1.764-1015.791 110.19-1.959c60.601-1.076 117.161-.258 125.684 1.851l15.495 3.822v2045.098h-124.18c-93.003 0-124.996-2.16-127.45-8.608z" fill="#63b535"/></svg>