<?xml version="1.0" encoding="UTF-8"?><svg id="Layer_2" xmlns="http://www.w3.org/2000/svg" viewBox="0 0 247.63 227.11"><defs><style>.cls-1{fill:#fff;stroke-width:0px;}</style></defs><g id="Energy"><polygon class="cls-1" points="0 145.24 0 57.98 32.69 76.85 32.69 117.36 48.01 126.3 48.01 85.7 77.46 102.7 77.46 189.96 0 145.24"/><polygon class="cls-1" points="56.22 72.74 92.46 51.98 77.26 43.2 40.9 63.9 7.66 44.71 85.12 0 162.58 44.71 85.12 89.43 56.22 72.74"/><path class="cls-1" d="M92.8,102.7l77.44-44.73v47.46l-.73.25c-28.06,9.43-46.91,35.63-46.91,65.2,0,.41,0,.73.04,1.09l.09.71-29.93,17.3v-87.27Z"/><path class="cls-1" d="M191.39,114.62c-31.06,0-56.25,25.18-56.25,56.25s25.18,56.25,56.25,56.25,56.25-25.18,56.25-56.25-25.18-56.25-56.25-56.25ZM216.79,162.42l-25.32,26.73c-1.35,1.43-3.23,2.23-5.2,2.23s-3.84-.81-5.2-2.23l-15.09-15.93c-2.72-2.87-2.6-7.4.27-10.12,2.87-2.71,7.4-2.59,10.12.27l9.89,10.44,20.13-21.25c2.72-2.87,7.25-2.99,10.12-.27,2.87,2.72,2.99,7.25.27,10.12Z"/></g></svg>