<?xml version="1.0" encoding="UTF-8"?><svg id="Layer_2" xmlns="http://www.w3.org/2000/svg" viewBox="0 0 220.36 265.96"><defs><style>.cls-1{fill:#fff;stroke-width:0px;}</style></defs><g id="Layer_1-2"><path class="cls-1" d="M209.07,139.24h-14.36l-9.28-28.96c-4.84-14.92-18.55-24.92-34.12-24.92h-20.97v22.59h20.97c5.73,0,10.81,3.79,12.58,9.28l10.81,33.72c.48,1.53-.65,3.14-2.26,3.14H47.91c-1.61,0-2.74-1.61-2.26-3.14l10.81-33.72c1.77-5.49,6.86-9.28,12.66-9.28h20.89v-22.59h-20.89c-15.65,0-29.36,10-34.12,24.92l-9.36,28.96h-14.36c-6.21,0-11.29,5.08-11.29,11.29v6.37c0,6.29,5.08,11.29,11.29,11.29h4.03c-2.26,10.49-3.47,21.13-3.47,31.86v54.61c0,6.21,5,11.29,11.29,11.29h18.87c6.21,0,11.29-5.08,11.29-11.29v-17.5h113.73v17.5c0,6.21,5.08,11.29,11.29,11.29h18.95c6.21,0,11.29-5.08,11.29-11.29v-54.61c0-10.73-1.29-21.37-3.55-31.86h4.03c6.21,0,11.29-5,11.29-11.29v-6.37c0-6.21-5.08-11.29-11.29-11.29ZM69.45,206.19h-22.91c-3.79,0-6.94-3.06-6.94-6.94v-10.81c0-4.28,3.87-7.5,8.07-6.86l21.37,3.47c2.82.48,5.08,2.58,5.65,5.4l1.61,7.34c.89,4.35-2.42,8.39-6.85,8.39ZM180.76,199.25c0,3.87-3.15,6.94-6.94,6.94h-22.91c-4.43,0-7.74-4.03-6.77-8.39l1.53-7.34c.65-2.82,2.9-4.92,5.73-5.4l21.3-3.47c4.19-.64,8.07,2.58,8.07,6.86v10.81Z"/><path class="cls-1" d="M80.97,37.27h3.16v7.52c0,11.86,7.97,21.75,18.8,24.91v61.13c0,4.01,3.25,7.26,7.26,7.26s7.26-3.25,7.26-7.26v-61.13c10.83-3.16,18.8-13.05,18.8-24.91v-7.52h3.16c4.01,0,7.26-3.25,7.26-7.26s-3.25-7.26-7.26-7.26h-10.19V6.05c0-3.34-2.71-6.05-6.05-6.05s-6.05,2.71-6.05,6.05v16.7h-13.86V6.05c0-3.34-2.71-6.05-6.05-6.05s-6.05,2.71-6.05,6.05v16.7h-10.19c-4.01,0-7.26,3.25-7.26,7.26s3.25,7.26,7.26,7.26Z"/></g></svg>