<?xml version="1.0" encoding="UTF-8"?><svg id="Layer_2" xmlns="http://www.w3.org/2000/svg" viewBox="0 0 328.12 257.37"><defs><style>.cls-1{fill:#fff;stroke-width:0px;}</style></defs><g id="Layer_1-2"><path class="cls-1" d="M155.5,201.77l57.1-76.57c4.23-5.67.18-13.74-6.9-13.74h-28.35l9.85-48.65c1.82-9-9.84-14.21-15.33-6.85l-57.1,76.57c-4.23,5.67-.18,13.74,6.89,13.74h28.35l-9.85,48.65c-1.82,9,9.84,14.21,15.33,6.85Z"/><path class="cls-1" d="M3.18,121.19c4.23-4.24,11.1-4.24,15.34,0l16.31,16.31v-8.64C34.83,57.8,92.63,0,163.68,0c39.49,0,76.24,17.71,100.82,48.61,3.73,4.69,2.95,11.51-1.74,15.24-4.69,3.73-11.51,2.95-15.24-1.73-20.43-25.69-50.99-40.42-83.84-40.42-59.09,0-107.16,48.07-107.16,107.17v8.63l16.3-16.3c4.23-4.24,11.11-4.24,15.34,0,4.24,4.24,4.24,11.1,0,15.34l-34.82,34.82c-2.12,2.12-4.89,3.18-7.67,3.18s-5.55-1.06-7.67-3.18L3.18,136.53c-4.24-4.24-4.24-11.1,0-15.34Z"/><path class="cls-1" d="M65.35,193.52c4.69-3.72,11.51-2.96,15.24,1.73,20.43,25.69,50.99,40.42,83.84,40.42,59.09,0,107.17-48.07,107.17-107.17v-8.63l-16.3,16.3c-2.12,2.12-4.89,3.18-7.67,3.18s-5.55-1.06-7.67-3.18c-4.24-4.24-4.24-11.11,0-15.34l34.82-34.82c4.23-4.24,11.1-4.24,15.34,0l34.82,34.82c4.24,4.24,4.24,11.1,0,15.34-4.23,4.24-11.1,4.24-15.34,0l-16.31-16.31v8.64c0,71.05-57.8,128.86-128.86,128.86-39.49,0-76.24-17.71-100.81-48.61-3.73-4.69-2.95-11.51,1.73-15.24Z"/></g></svg>