<?xml version="1.0" encoding="UTF-8"?><svg id="Layer_2" xmlns="http://www.w3.org/2000/svg" viewBox="0 0 295.02 261.72"><defs><style>.cls-1{fill:#fff;stroke-width:0px;}</style></defs><g id="Layer_1-2"><path class="cls-1" d="M55.62,120.98c-5.12,0-9.26,4.14-9.26,9.26v60.17c0,5.12,4.15,9.27,9.26,9.27h71.48c5.12,0,9.26-4.15,9.26-9.27v-60.17c0-5.12-4.15-9.26-9.26-9.26h-27.87v14.17c0,4.35-3.53,7.88-7.88,7.88s-7.88-3.53-7.88-7.88v-14.17h-27.85Z"/><path class="cls-1" d="M167.91,87.07c-5.12,0-9.26,4.15-9.26,9.27v60.16c0,5.12,4.15,9.27,9.26,9.27h71.48c5.12,0,9.26-4.15,9.26-9.27v-60.16c0-5.12-4.15-9.27-9.26-9.27h-27.86v14.18c0,4.35-3.53,7.88-7.88,7.88s-7.88-3.53-7.88-7.88v-14.18h-27.86Z"/><path class="cls-1" d="M270.95,213.59H24.07c-13.26,0-24.07,10.81-24.07,24.06s10.81,24.07,24.07,24.07h246.88c13.26,0,24.07-10.81,24.07-24.07s-10.8-24.06-24.07-24.06ZM24.08,248.07c-5.74,0-10.44-4.66-10.44-10.39s4.7-10.44,10.44-10.44,10.44,4.66,10.44,10.44-4.7,10.39-10.44,10.39ZM59.34,248.07c-5.74,0-10.44-4.66-10.44-10.39s4.7-10.44,10.44-10.44,10.44,4.66,10.44,10.44-4.7,10.39-10.44,10.39ZM94.61,248.07c-5.74,0-10.44-4.66-10.44-10.39s4.7-10.44,10.44-10.44,10.44,4.66,10.44,10.44-4.7,10.39-10.44,10.39ZM129.88,248.07c-5.74,0-10.44-4.66-10.44-10.39s4.7-10.44,10.44-10.44,10.44,4.66,10.44,10.44-4.7,10.39-10.44,10.39ZM165.14,248.07c-5.74,0-10.44-4.66-10.44-10.39s4.7-10.44,10.44-10.44,10.44,4.66,10.44,10.44-4.7,10.39-10.44,10.39ZM200.41,248.07c-5.74,0-10.44-4.66-10.44-10.39s4.7-10.44,10.44-10.44,10.44,4.66,10.44,10.44-4.7,10.39-10.44,10.39ZM235.67,248.07c-5.74,0-10.44-4.66-10.44-10.39s4.7-10.44,10.44-10.44,10.44,4.66,10.44,10.44-4.7,10.39-10.44,10.39ZM270.94,248.07c-5.74,0-10.44-4.66-10.44-10.39s4.7-10.44,10.44-10.44,10.44,4.66,10.44,10.44-4.7,10.39-10.44,10.39Z"/><path class="cls-1" d="M38.45,22.02h158.25v32.05l-55.2,13.17c-3.04.73-5.23,3.4-5.33,6.52l-.93,26.61c-.14,3.84,2.87,7.07,6.71,7.2.08,0,.17,0,.25,0,3.73,0,6.82-2.96,6.95-6.71l.75-21.32,53.77-12.83,53.77,12.83.75,21.32c.13,3.76,3.21,6.71,6.95,6.71.08,0,.17,0,.25,0,3.84-.13,6.84-3.36,6.71-7.2l-.93-26.61c-.11-3.13-2.29-5.8-5.33-6.52l-55.19-13.17V22.02h45.96c3.85,0,6.96-3.11,6.96-6.96V6.96c0-3.85-3.11-6.96-6.96-6.96H38.45c-3.85,0-6.96,3.11-6.96,6.96v8.1c0,3.85,3.11,6.96,6.96,6.96Z"/></g></svg>