<?xml version="1.0" encoding="UTF-8"?><svg id="Layer_2" xmlns="http://www.w3.org/2000/svg" viewBox="0 0 20 14.06"><defs><style>.cls-1{fill:#fff;stroke-width:0px;}</style></defs><g id="Layer_1-2"><path class="cls-1" d="M12.96,7.86l-1.68,1.68c-.68.68-1.87.7-2.57,0l-1.68-1.68L1.02,13.9c.22.1.47.17.73.17h16.48c.26,0,.51-.06.73-.17l-6.02-6.04Z"/><path class="cls-1" d="M18.24,0H1.76c-.26,0-.51.06-.73.17l6.43,6.45s0,0,0,0c0,0,0,0,0,0l2.09,2.1c.22.22.69.22.91,0l2.09-2.1s0,0,0,0c0,0,0,0,0,0L18.98.17c-.22-.1-.47-.17-.73-.17Z"/><path class="cls-1" d="M.19.98c-.12.23-.19.49-.19.77v10.55c0,.28.07.54.19.77l6.03-6.05L.19.98Z"/><path class="cls-1" d="M19.81.98l-6.03,6.05,6.03,6.05c.12-.23.19-.49.19-.77V1.76c0-.28-.07-.54-.19-.77Z"/></g></svg>