<svg width="39" height="39" viewBox="0 0 39 39" fill="none" xmlns="http://www.w3.org/2000/svg">
<g clip-path="url(#clip0_1359_2282)">
<path d="M20.3545 38.4574H32.7479C33.3701 38.4574 33.8745 37.953 33.8745 37.3307V25.6885H20.3545V38.4574Z" fill="white"/>
<path d="M4.58008 37.3307C4.58008 37.953 5.08453 38.4574 5.70675 38.4574H18.1001V25.6885H4.58008V37.3307Z" fill="white"/>
<path d="M12.9216 16.6748H1.15782C0.802617 16.6748 0.457254 16.8261 0.238906 17.1062C-0.0674738 17.4992 -0.0777641 18.0341 0.193088 18.4336L3.58279 23.4348H18.1008L13.8543 17.1693C13.6446 16.86 13.2953 16.6748 12.9216 16.6748Z" fill="white"/>
<path d="M38.2165 17.1062C37.9982 16.8261 37.6528 16.6748 37.2976 16.6748H25.5337C25.16 16.6748 24.8107 16.86 24.6011 17.1693L20.3545 23.4348H34.8725L38.2622 18.4336C38.5331 18.034 38.5229 17.4992 38.2165 17.1062Z" fill="white"/>
<path d="M31.342 0.811074C31.1378 0.732207 26.2985 -1.09811 22.6403 1.01388C20.9894 1.96696 19.9137 3.52988 19.227 4.97795C18.5404 3.52981 17.4646 1.96696 15.8138 1.01388C12.1559 -1.09803 7.31633 0.732207 7.1121 0.811074C6.6178 1.00216 6.32343 1.51194 6.40515 2.03562C6.43888 2.25194 7.27359 7.35823 10.9316 9.47014C12.2596 10.2369 13.7433 10.4841 15.1045 10.4841C16.2437 10.4841 17.2964 10.311 18.1004 10.1245V9.27245L12.8095 6.21767C12.2705 5.90656 12.0859 5.21748 12.3971 4.67863C12.7082 4.13971 13.3973 3.95501 13.9361 4.26627L19.227 7.32098L24.518 4.2662C25.0569 3.95509 25.746 4.13964 26.0571 4.67856C26.3683 5.21741 26.1836 5.90648 25.6447 6.21759L20.3537 9.27245V10.1244C21.1577 10.3109 22.2104 10.484 23.3497 10.484C24.7106 10.484 26.1948 10.2367 27.5226 9.47006C31.1806 7.35816 32.0152 2.25186 32.049 2.03554C32.1307 1.51194 31.8363 1.00216 31.342 0.811074Z" fill="white"/>
<path d="M18.1006 10.1247V16.6738C18.1006 17.296 18.605 17.8004 19.2273 17.8004C19.8495 17.8004 20.3539 17.296 20.3539 16.6738V10.1247C19.8815 10.0152 19.4947 9.90091 19.2273 9.81445C18.9598 9.90083 18.573 10.0151 18.1006 10.1247Z" fill="white"/>
</g>
<defs>
<clipPath id="clip0_1359_2282">
<rect width="38.457" height="38.457" fill="white"/>
</clipPath>
</defs>
</svg>
